<svg xmlns="http://www.w3.org/2000/svg" xmlns:xlink="http://www.w3.org/1999/xlink" width="1240" height="310.048" viewBox="0 0 1240 310.048">
  <defs>
    <linearGradient id="linear-gradient" x1="1.043" y1="-0.125" x2="0.336" y2="1.321" gradientUnits="objectBoundingBox">
      <stop offset="0" stop-color="#64f6f0"/>
      <stop offset="0.645" stop-color="#4b31a8"/>
      <stop offset="1" stop-color="#461698"/>
    </linearGradient>
    <clipPath id="clip-path">
      <path id="Rectangle_652" data-name="Rectangle 652" d="M1220.473,0H19.528C8.743,0,0,5.139,0,11.477V298.409c0,6.339,8.743,11.477,19.528,11.477H1220.473c10.785,0,19.527-5.139,19.527-11.477V11.477C1240,5.139,1231.258,0,1220.473,0Z" fill="url(#linear-gradient)"/>
    </clipPath>
  </defs>
  <g id="Grupo_80941" data-name="Grupo 80941" transform="translate(-178.333 -1367)">
    <rect id="Rectángulo_34835" data-name="Rectángulo 34835" width="1239.334" height="309.063" rx="18" transform="translate(179 1367)" fill="#fff"/>
    <g id="Enmascarar_grupo_45" data-name="Enmascarar grupo 45" transform="translate(178.333 1367.162)" clip-path="url(#clip-path)">
      <path id="Sustracción_2" data-name="Sustracción 2" d="M405.691,0c224.056,0,405.69,185.806,405.69,415.01s-181.634,415.01-405.69,415.01S0,644.213,0,415.01,181.633,0,405.691,0Z" transform="translate(640.743 175.502)" fill="#fff6df" style="mix-blend-mode: multiply;isolation: isolate"/>
      <path id="Sustracción_6" data-name="Sustracción 6" d="M373.3,325.822h0a494.831,494.831,0,0,1-54.8-14.653A498.223,498.223,0,0,1,247.612,281.5a505.4,505.4,0,0,1-65.033-39.845,513.153,513.153,0,0,1-58.234-49.049,518.625,518.625,0,0,1-50.473-57.274A521.35,521.35,0,0,1,32.105,70.806,521.991,521.991,0,0,1,0,0H2.13C4.5,6.442,7.013,12.88,9.6,19.135c6.322,15.287,13.463,30.451,21.225,45.07,7.706,14.513,16.2,28.816,25.246,42.509,9.016,13.651,18.778,27,29.015,39.691,10.205,12.656,21.15,24.975,32.529,36.616s23.427,22.839,35.8,33.28c12.416,10.48,25.469,20.466,38.8,29.678,13.379,9.248,27.362,17.937,41.555,25.826,14.29,7.94,29.113,15.245,44.06,21.71a494.317,494.317,0,0,0,46.3,17.338,494.74,494.74,0,0,0,48.3,12.707l.875.181v2.08Z" transform="translate(934.997 -0.508)" fill="#7d5f54"/>
      <path id="Trazado_118480" data-name="Trazado 118480" d="M181.284,608.873s73.112-48.483-18.672-122.7-57-195.381-48.29-217.457,36.113-75.518,18.619-64.221-25.029,76.237-27.109,47.843,55.256-134.284,103.5-172.91c28.646-22.933,31.019-32.066,28.221-35.7-2.084-2.709-6.872-1.693-10.075,1.815-13.112,14.364-55.4,59.849-54.97,48.563.615-16.192,40.824-55.094,60.329-70.856s34.321-32.224,19.042-35.011S-107.673,181.36,8.747,473.554c0,0,2.046,11.964-6.5,7.991S-12.84,460.921-14.835,473.6s77.686,205.433,196.12,135.274" transform="translate(713.531 34.957) rotate(-47)" fill="#fed2b2"/>
    </g>
  </g>
</svg>
