<svg id="Grupo_176702" data-name="Grupo 176702" xmlns="http://www.w3.org/2000/svg" width="107.904" height="107.903" viewBox="0 0 107.904 107.903">
  <path id="Trazado_604615" data-name="Trazado 604615" d="M380.918,601.333V573.806l13.765-23.844L418.519,536.2h27.534l23.84,13.761L483.659,573.8v27.533l-13.766,23.843-23.84,13.763H418.519l-23.836-13.763Z" transform="translate(-378.338 -533.619)" fill="#f4efe9"/>
  <path id="Trazado_604616" data-name="Trazado 604616" d="M378.65,573.425V602.34l14.455,25.041,25.036,14.453h28.921L472.1,627.381l14.458-25.041V573.422L472.1,548.385l-25.034-14.454H418.141l-25.036,14.454Zm5.167,1.385,13.072-22.643L419.528,539.1h26.15l22.637,13.069,13.074,22.639v26.146L468.315,623.6l-22.637,13.07h-26.15L396.889,623.6l-13.072-22.644Z" transform="translate(-378.65 -533.931)" fill="#fdb053"/>
  <g id="Grupo_176695" data-name="Grupo 176695" transform="translate(27.35 28.953)">
    <path id="Trazado_604617" data-name="Trazado 604617" d="M465.876,581.491l-3.126-6.744-10.983-6.339-15-2.322-15.005,2.322-19.071,11.014v-6.7L421.763,561.7l15.005-2.321,15,2.321,10.983,6.342,4.018,8.657Z" transform="translate(-402.692 -559.382)" fill="#574943"/>
    <path id="Trazado_604618" data-name="Trazado 604618" d="M461.811,581.314l-4.018,8.66-19.076,11.014v-6.705l19.076-11.014,4.018-8.662Z" transform="translate(-397.736 -557.287)" fill="#0a0808"/>
  </g>
  <path id="Trazado_604619" data-name="Trazado 604619" d="M393.052,576.146l2.723-1.989,33.457,19.314,2.774,5.833v8.648l-4.211,3.087-8.125-4.688-5.292-8.812-.515-2.137-2.565-1.544-.823,1.722-4.936,2.609-7.968-4.6-4.52-8.43Z" transform="translate(-376.668 -528.396)" fill="#685750"/>
  <g id="Grupo_176696" data-name="Grupo 176696" transform="translate(18.081 46.886)">
    <path id="Trazado_604620" data-name="Trazado 604620" d="M419.574,602.517l-4.645-8.043-1.088-3.08-3.891-2.248-.756.442,1.944,2.035,2.495,3.014,4.656,8.324,7.443,4.327.657-.835Z" transform="translate(-392.529 -573.22)" fill="#403531"/>
    <path id="Trazado_604621" data-name="Trazado 604621" d="M395.57,584.373v-7.692l1.688-1.416-.157-.12h-.457l-2.1,1.889v8.194l3.592,6.857,7.442,4.331.917-.689-7.077-4.082Z" transform="translate(-394.545 -575.147)" fill="#403531"/>
  </g>
  <g id="Grupo_176697" data-name="Grupo 176697" transform="translate(17.324 47.329)">
    <path id="Trazado_604622" data-name="Trazado 604622" d="M417.81,601.319l6.811,3.936-.655.836-7.445-4.329.768-.678Z" transform="translate(-390.764 -572.02)" fill="#f4efe9"/>
    <path id="Trazado_604623" data-name="Trazado 604623" d="M398.316,590.066,405.137,594l-.659.841-7.442-4.333.766-.676Z" transform="translate(-393.444 -573.568)" fill="#f4efe9"/>
    <path id="Trazado_604624" data-name="Trazado 604624" d="M394.908,584.763v-7.691l1.682-1.421-.16-.116h-.456l-2.1,1.891v8.194l.837-.445Z" transform="translate(-393.879 -575.536)" fill="#b5afa7"/>
    <path id="Trazado_604625" data-name="Trazado 604625" d="M394.876,583.647l3.843,7.27-.757.443-2.143-2.652-1.7-4.618Z" transform="translate(-393.846 -574.42)" fill="#e6e1dd"/>
    <path id="Trazado_604626" data-name="Trazado 604626" d="M413.725,594.263l4.648,8.042-.757.444-1.152-.767-4.036-7.56,1.1-.51Z" transform="translate(-391.327 -573.007)" fill="#e6e1dd"/>
    <path id="Trazado_604627" data-name="Trazado 604627" d="M412.777,591.513l1.086,3.081-.757.442-1.677-3.225.873-.234Z" transform="translate(-391.464 -573.337)" fill="#b5afa7"/>
    <path id="Trazado_604628" data-name="Trazado 604628" d="M408.529,589.981l.757-.446,3.891,2.25-.754.444-1.947-.216Z" transform="translate(-391.863 -573.61)" fill="#e6e1dd"/>
  </g>
  <path id="Trazado_604629" data-name="Trazado 604629" d="M423.96,609.521l9.561-5.52,7.809-5.327h-.387l-12.029,6.593L424.46,608.6Z" transform="translate(-372.416 -525.023)" fill="#a39c95"/>
  <path id="Trazado_604630" data-name="Trazado 604630" d="M440.82,590.08v9.776l-12.169,7.028-.988-10.273Z" transform="translate(-371.906 -526.205)" fill="#a39c95"/>
  <g id="Grupo_176698" data-name="Grupo 176698" transform="translate(65.425 66.195)">
    <path id="Trazado_604631" data-name="Trazado 604631" d="M437.436,593.619l-.123,7.332-1.15-.661v-7.26Z" transform="translate(-436.162 -591.994)" fill="#362c29"/>
    <path id="Trazado_604632" data-name="Trazado 604632" d="M437.957,592.12l1.147.665-.9.991-.895.041-1.15-.661Z" transform="translate(-436.162 -592.12)" fill="#574943"/>
    <path id="Trazado_604633" data-name="Trazado 604633" d="M438.965,599.963V592.7l-1.792,1.032V601Z" transform="translate(-436.023 -592.039)" fill="#0a0808"/>
  </g>
  <path id="Trazado_604634" data-name="Trazado 604634" d="M435.23,585.57l5.926,5.131-12.169,7.023-1.61-2.493-2.157-4.2.91-.606Z" transform="translate(-372.242 -526.826)" fill="#b5afa7"/>
  <path id="Trazado_604635" data-name="Trazado 604635" d="M401.893,572.243l3.075-3.661v1.734l-1.874,4.487Z" transform="translate(-375.452 -529.163)" fill="#a39c95"/>
  <path id="Trazado_604636" data-name="Trazado 604636" d="M394.866,573.34l9.565-5.523,1.5.87-1.874,4.483,26.078,15.055,7.764-1.082,1.5.87-9.564,5.521L424.2,591.4l-25.581-14.8Z" transform="translate(-376.419 -529.269)" fill="#e6e1dd"/>
  <g id="Grupo_176701" data-name="Grupo 176701" transform="translate(20.738 41.268)">
    <g id="Grupo_176699" data-name="Grupo 176699" transform="translate(25.418 14.67)">
      <path id="Trazado_604637" data-name="Trazado 604637" d="M425.632,588.347l-6.409-3.557v1.323l6.284,3.631Z" transform="translate(-419.223 -582.872)" fill="#362c29"/>
      <path id="Trazado_604638" data-name="Trazado 604638" d="M428.065,587.626V586.3l-2.091.937-1.227.981v1.325Z" transform="translate(-418.463 -582.665)" fill="#0a0808"/>
      <path id="Trazado_604639" data-name="Trazado 604639" d="M419.223,585.022l6.284,3.63,3.318-1.917-6.287-3.63Z" transform="translate(-419.223 -583.104)" fill="#574943"/>
    </g>
    <g id="Grupo_176700" data-name="Grupo 176700">
      <path id="Trazado_604640" data-name="Trazado 604640" d="M403.293,575.45l-6.414-3.56v1.326l6.292,3.631Z" transform="translate(-396.88 -569.976)" fill="#362c29"/>
      <path id="Trazado_604641" data-name="Trazado 604641" d="M405.727,574.728V573.4l-2.092.931-1.223.985v1.324Z" transform="translate(-396.118 -569.769)" fill="#0a0808"/>
      <path id="Trazado_604642" data-name="Trazado 604642" d="M396.88,572.122l6.292,3.633,3.316-1.917-6.29-3.63Z" transform="translate(-396.88 -570.208)" fill="#574943"/>
    </g>
  </g>
  <path id="Trazado_604643" data-name="Trazado 604643" d="M409.381,594.242l1.374-.794-.506-.806-1.133.563Z" transform="translate(-374.458 -525.853)" fill="#a39c95"/>
  <path id="Trazado_604644" data-name="Trazado 604644" d="M430.244,592.865l-34.976-20.193-3.321,2.8v9.776l5.2,9.827,8.956,5.17,5.64-3.257.576-.97.87.5.577,1.634,5.642,9.773,8.956,5.168,5.2-3.819V599.5Zm.853,13.914-3.846,2.829-6.816-3.936-4.648-8.045L414.7,594.55l-3.893-2.249-1.086,1.829-4.644,2.676-6.821-3.935-3.846-7.27v-7.691l2.024-1.713,32.633,18.841,2.027,4.054Z" transform="translate(-376.82 -528.601)" fill="#d8d1c7"/>
</svg>
