<svg id="Grupo_176752" data-name="Grupo 176752" xmlns="http://www.w3.org/2000/svg" width="107.904" height="107.901" viewBox="0 0 107.904 107.901">
  <g id="Grupo_176749" data-name="Grupo 176749">
    <path id="Trazado_604817" data-name="Trazado 604817" d="M380.921,1308.009v-27.528l13.765-23.841,23.836-13.762h27.536l23.837,13.762,13.768,23.837v27.532l-13.768,23.843-23.837,13.764H418.522l-23.836-13.764Z" transform="translate(-378.341 -1240.296)" fill="#f4efe9"/>
    <path id="Trazado_604818" data-name="Trazado 604818" d="M378.653,1280.1v28.917l14.452,25.038,25.04,14.453h28.921l25.034-14.453,14.458-25.038V1280.1L472.1,1255.062l-25.034-14.454H418.144l-25.04,14.454Zm5.168,1.383,13.071-22.642,22.639-13.068h26.147l22.638,13.068,13.073,22.638v26.147l-13.073,22.643-22.638,13.072H419.531l-22.639-13.072-13.071-22.643Z" transform="translate(-378.653 -1240.608)" fill="#fdb053"/>
  </g>
  <g id="Grupo_176751" data-name="Grupo 176751" transform="translate(26.425 16.275)">
    <path id="Trazado_604819" data-name="Trazado 604819" d="M449.371,1266.362v.008c-.3,3.836-2.1,18.4-2.829,20.661-.167.519-.3.961-.381,1.328l-.321,1.563-5.133-8.008s1.595-7.109,2.418-12.356c.381-2.425.229-3.966-.344-4.828-.663-.991-1.892-1.075-3.524-.571l.817-2.036,4.446,1.349C447.281,1262.732,448.739,1264.013,449.371,1266.362Z" transform="translate(-396.74 -1253.923)" fill="#2e2e2e"/>
    <path id="Trazado_604820" data-name="Trazado 604820" d="M426.209,1257.223l-4.937.393c4.379,0,4.117,6.143,4.052,9.8a42.821,42.821,0,0,0,.391,6.6l4.393,4.083S434.087,1256.57,426.209,1257.223Z" transform="translate(-399.214 -1254.599)" fill="#141414"/>
    <path id="Trazado_604821" data-name="Trazado 604821" d="M433.018,1278.481l-1.022-.068c.122-5.7,1.235-17.657-1.441-19.526s-12.874,2.617-14.743,7.1c-1.7,4.073-3.348,10.411-5.384,10.411h-.008a1.112,1.112,0,0,1-.618-.2.546.546,0,0,1-.084-.06,4.4,4.4,0,0,1-1.54-1.869c-.885-1.907-.846-4.729.282-8.031,1.625-4.736,4.34-8.183,7.97-9.343s6.636-2.364,10.663-1.868a5.341,5.341,0,0,1,3.508,1.892c1.663,1.913,2.463,5.148,2.417,9.228C432.95,1272.486,433.018,1278.481,433.018,1278.481Z" transform="translate(-401.101 -1254.915)" fill="#575757"/>
    <path id="Trazado_604822" data-name="Trazado 604822" d="M441.408,1299.24c-7.513,1.533-20.158,2.1-20.158,2.1a16.064,16.064,0,0,0-2.623.465c-.229.053-.45.122-.671.191a17.351,17.351,0,0,0-5.164,2.646c-1.35,1-3.15,2.594-3.6,4.3a2.012,2.012,0,0,0-.06.373c-.008-6.559-.016-18.1-.016-18.1s-2.891-2.2-1.51-6.719c.915-3.006,6.757-5.827,11.715-7.177h.008a18.438,18.438,0,0,1,5.613-.816l.245.023a2.287,2.287,0,0,1,.229.038,17.252,17.252,0,0,1,1.709.428c5.72,1.67,19.333,7.237,20.379,10.761.007.007.007.007.007.015C448.645,1291.729,448.92,1297.716,441.408,1299.24Z" transform="translate(-401.146 -1251.947)" fill="#3b3b3b"/>
    <path id="Trazado_604823" data-name="Trazado 604823" d="M451.752,1312.248a29.56,29.56,0,0,1-.03,3.478c-.313,2.67-2.731,4.569-4.859,5.873-5.53,3.371-12.318,4.553-18.717,4.431a26.138,26.138,0,0,1-4.942-.389,1.991,1.991,0,0,1-1.5-.945,4.142,4.142,0,0,1-.061-1.564c.053-2.425.008-4.859.008-7.284v-7.192c0-1.235-.038-2.463-.008-3.691.016-.633-.015-1.266,0-1.9a8.1,8.1,0,0,0,.008-1.609s12.645-.564,20.158-2.1,7.237-7.511,6.1-11.47-18.2-10.51-22.094-11.2a2.288,2.288,0,0,0-.229-.038l-.245-.023c-4.348-.329-16.009,3.638-17.336,7.993-1.381,4.523,1.51,6.719,1.51,6.719s.008,11.54.016,18.1a7.115,7.115,0,0,0,0,1.274c.015.206.023.412.023.6,0,.817-.023,1.64-.023,2.456,0,.969.06,1.633-.969,2.059a3.715,3.715,0,0,1-2.425.076c-1.921-.6-1.792-3.286-1.792-4.927v-19.5a19.688,19.688,0,0,1,.266-4.828c.961-3.782,4.218-6.513,7.506-8.3a23.576,23.576,0,0,1,13.278-2.624c.091.008.191.016.282.031a33.358,33.358,0,0,1,9.4,2.318,46.248,46.248,0,0,1,12.248,7.055c2.074,1.717,4.492,4.142,4.423,7.055.146,2.722.008,5.506,0,8.229s-.007,5.43,0,8.145C451.76,1309.784,451.752,1311.012,451.752,1312.248Z" transform="translate(-401.546 -1252.064)" fill="#454545"/>
    <path id="Trazado_604824" data-name="Trazado 604824" d="M420.623,1306.537a.661.661,0,0,0-.232-.2,19.333,19.333,0,0,0-2.409-.458,11.6,11.6,0,0,1-2.308-1.041c-3.638-1.858-7.848-3.759-9.665-7.317.331.649-.1,1.912.022,2.637a4.179,4.179,0,0,0,1.291,2.45,22.719,22.719,0,0,0,5.046,3.7c1.7.963,3.269,1.794,4.916,2.586a6.058,6.058,0,0,0,3.243.776C420.565,1308.832,421.118,1307.2,420.623,1306.537Z" transform="translate(-401.315 -1249.052)" fill="#242424"/>
    <path id="Trazado_604825" data-name="Trazado 604825" d="M408.9,1306.465c.015.206.023.412.023.6,0,.817-.023,1.64-.023,2.456Z" transform="translate(-400.916 -1247.822)" fill="#454545"/>
    <path id="Trazado_604826" data-name="Trazado 604826" d="M420.623,1312.889a.663.663,0,0,0-.232-.2,19.356,19.356,0,0,0-2.409-.458,11.611,11.611,0,0,1-2.308-1.041c-3.638-1.858-7.848-3.759-9.665-7.317.331.65-.1,1.912.022,2.637a4.179,4.179,0,0,0,1.291,2.45,22.727,22.727,0,0,0,5.046,3.7c1.7.964,3.269,1.794,4.916,2.586a6.057,6.057,0,0,0,3.243.776C420.565,1315.184,421.118,1313.548,420.623,1312.889Z" transform="translate(-401.315 -1248.178)" fill="#242424"/>
    <path id="Trazado_604827" data-name="Trazado 604827" d="M415.127,1314.987a5.017,5.017,0,0,0,1.356.01,1.762,1.762,0,0,0,.031-.542c-.528-.014-.787-.168-.762-.749a6.208,6.208,0,0,0,0-1.468,1.374,1.374,0,0,1,.067-1,4.263,4.263,0,0,0,1.1.328,1.3,1.3,0,0,0-.61-1.566,20.864,20.864,0,0,0-2.6-1.419,13.524,13.524,0,0,0-2.727-.968c-1.035-.263-.648,1.887-.641,2.359a8.884,8.884,0,0,0,.187,2.138,3.377,3.377,0,0,0,1.171,1.514A6.633,6.633,0,0,0,415.127,1314.987Z" transform="translate(-400.73 -1247.667)" fill="#363636"/>
    <path id="Trazado_604828" data-name="Trazado 604828" d="M410.6,1311.836l-.009-.033a7.87,7.87,0,0,1-.193-2.446c.026-.276-.034-1.317.349-1.375.124-.018.485.218.613.264.5.179,1.038.24,1.522.46.77.349,1.788.91,1.842,1.847a13.046,13.046,0,0,1-.4,2.6c-.072.468-.24,1.107-.825,1.124a2.371,2.371,0,0,1-1.665-.849A4.49,4.49,0,0,1,410.6,1311.836Z" transform="translate(-400.714 -1247.613)" fill="#757575"/>
    <path id="Trazado_604829" data-name="Trazado 604829" d="M410.533,1309.992c.061-.473-.281-1.758.474-1.663a3.973,3.973,0,0,1,1.408.484c.238.148.763.342.833.647-.248.116-.764-.158-1.017-.221s-.786-.332-1.012-.142C410.869,1309.388,411.438,1310.148,410.533,1309.992Z" transform="translate(-400.695 -1247.566)" fill="#b0b0b0"/>
    <path id="Trazado_604830" data-name="Trazado 604830" d="M428.251,1273.624v.023c-.039,1.868-.152,2.784-1.128,3.875-.123.136-.259.274-.413.419-1.754,1.686-2.615,4.508-3.676,6.651a27.772,27.772,0,0,0-2,5.6c-.6,2.409-.976,4.873-1.4,7.367-.222,1.3-.8,3.119-1.007,4.774-.229.053-.45.122-.671.191a17.351,17.351,0,0,0-5.164,2.646c-1.35,1-3.15,2.594-3.6,4.3a2.012,2.012,0,0,0-.06.373c-.008-6.559-.016-18.1-.016-18.1s-2.891-2.2-1.51-6.719c.915-3.006,6.757-5.827,11.715-7.177h.008c1.143-1.1,2.211-2.242,3.462-3.241,1.053-.848,2.1-1.984,3.486-1.96A2.383,2.383,0,0,1,428.251,1273.624Z" transform="translate(-401.146 -1252.475)" fill="#333"/>
    <path id="Trazado_604831" data-name="Trazado 604831" d="M411.536,1278.682c-6.209,3.585-8.4,8.623-6.584,13.235.41,1.038,2.632,1.412,3.934.661h0c.559-.323.807-.787.629-1.231-1.5-3.747.278-7.845,5.324-10.758,4.074-2.353,10.954-4.635,23.607,2.671s8.7,11.278,4.627,13.631c-5.046,2.913-12.144,3.937-18.634,3.074a3.516,3.516,0,0,0-2.132.363h0c-1.3.752-.652,2.035,1.143,2.271,7.989,1.051,16.716-.216,22.925-3.8,8.489-4.9,6.932-10.77-4.627-17.444S420.025,1273.781,411.536,1278.682Z" transform="translate(-401.545 -1252.072)" fill="#545454"/>
    <path id="Trazado_604832" data-name="Trazado 604832" d="M449.42,1295.093a7.065,7.065,0,0,1-3.165.5c-5.835.214-10.35-1.639-15.544-4.241-.031-.015-.053-.03-.084-.045a28.764,28.764,0,0,0-5.376-2.219,28.969,28.969,0,0,1-4.805-1.334c-1.48-.7-2.806-1.411-4.34-2.021a55.379,55.379,0,0,1-5.217-2.7l-1.357-1.357c-.107-1.358,2.6-2.975,3.691-3.509a35.506,35.506,0,0,0,5.018-2.539c1.122-.778,2.174-1.641,3.219-2.518a9.413,9.413,0,0,1,5.026-2.5c1.136-.068,1.944.817,2.73,1.6l.206.206c2.509,2.425,4.447,5.194,7.322,6.857a10.856,10.856,0,0,0,3.417,1.273,6.816,6.816,0,0,0,3.486-.229c1.159-.32,3.028-1.427,4.134-.449a9.616,9.616,0,0,1,1.51,2.829,11.993,11.993,0,0,1,.656,2.5c.114.656.206,1.328.3,1.991.107.77.221,1.525.389,2.227C451.114,1291.378,451.6,1293.971,449.42,1295.093Z" transform="translate(-400.83 -1252.756)" fill="#545454"/>
    <path id="Trazado_604833" data-name="Trazado 604833" d="M452.469,1302.571c-.193,3.924-.052,8.394-3,11.443a15.162,15.162,0,0,1-4.343,3.221,38.415,38.415,0,0,1-14.765,3.334,34.733,34.733,0,0,0-4.7.292,9.2,9.2,0,0,1-4.931-.064c-4.655-1.427-2.965-7.673-2.784-11.4.1-2.066-.168-5.967,2.178-6.929,1.227-.5,2.894-.08,4.16-.027a45.589,45.589,0,0,0,8.093-.26c3.223-.472,10.123-2.4,12.393-3.884a22.224,22.224,0,0,0,5.175-4.447s.042-1.4.042-2.562a3.278,3.278,0,0,1,1.437,1.538,18.887,18.887,0,0,1,.669,2.646,11.747,11.747,0,0,1,.4,3.333C452.516,1300.069,452.532,1301.31,452.469,1302.571Z" transform="translate(-399.733 -1249.91)" fill="#363636"/>
    <path id="Trazado_604834" data-name="Trazado 604834" d="M403.63,1309.534l-.058-.126c-1.143-2.52-.833-5.1-.776-7.8.076-3.707-.2-7.067.7-10.676a7.827,7.827,0,0,1,1.066-2.338c.033.495,0,1.97,0,1.97a12.682,12.682,0,0,0,1.857,4.726c1.007,1.862.42,4.346.372,6.36q-.07,2.99.133,5.976c.091,1.347.576,3.288-.248,4.487C405.622,1313.649,404.06,1310.467,403.63,1309.534Z" transform="translate(-401.768 -1250.281)" fill="#363636"/>
    <path id="Trazado_604835" data-name="Trazado 604835" d="M402.2,1300.859a5.063,5.063,0,0,1,1.882-3.016c-1.214,2.209-.408,4.358.537,6.521a6.453,6.453,0,0,1,.909,3.49c-.076.673-.625,1.413-1.423,1.011-.919-.463-1.437-2.3-1.737-3.176A7.594,7.594,0,0,1,402.2,1300.859Z" transform="translate(-401.882 -1249.008)" fill="#454545"/>
    <path id="Trazado_604836" data-name="Trazado 604836" d="M402.7,1302.485a3.275,3.275,0,0,1-.147-1.62,1.739,1.739,0,0,1,.669-1.6,16.774,16.774,0,0,0,.29,3.016,24.331,24.331,0,0,0,1.21,3.089c.23.6.662,2.719-.629,2.5-1.073-.185-.636-1.985-.7-2.721A7.382,7.382,0,0,0,402.7,1302.485Z" transform="translate(-401.794 -1248.812)" fill="#575757"/>
    <path id="Trazado_604837" data-name="Trazado 604837" d="M440.846,1305.657a21.236,21.236,0,0,1-7.245,2.209,60.831,60.831,0,0,1-7.64.318,17.412,17.412,0,0,1-4.594-.786c-1.561-.5-2.5-1.256-1.367-2.735,1.044-1.365,2.872-1.143,4.595-1.142a55.6,55.6,0,0,0,9.032-.432c5.732-1.051,11.643-3.153,16.305-7.248a3.635,3.635,0,0,0,1.285-2.954c.613.294.7,1.114.842,1.706a3.443,3.443,0,0,1-.143,1.748,3.917,3.917,0,0,1-.541,1.613,19.051,19.051,0,0,1-2.378,2.878,17.4,17.4,0,0,1-3.436,2.2C444.033,1303.884,442.536,1304.9,440.846,1305.657Z" transform="translate(-399.458 -1249.69)" fill="#454545"/>
    <path id="Trazado_604838" data-name="Trazado 604838" d="M440.768,1310.782a24.772,24.772,0,0,1-7.773,2.168c-2.657.13-5.162.342-7.5.241a16.548,16.548,0,0,1-4.294-.669c-1.429-.437-2.276-1.163-1.156-2.623,1.035-1.349,2.726-1.136,4.346-1.133a59.1,59.1,0,0,0,8.894-.381c6.126-1.3,12.713-4.057,17.611-8.739a7.418,7.418,0,0,0,1.295-2.492c.336.3,1.018,3.2.117,4.687a19.821,19.821,0,0,1-2.5,3.408,16.723,16.723,0,0,1-3.787,2.647A43.981,43.981,0,0,1,440.768,1310.782Z" transform="translate(-399.454 -1249.103)" fill="#454545"/>
    <path id="Trazado_604839" data-name="Trazado 604839" d="M441.206,1315.577a24.807,24.807,0,0,1-7.773,2.168c-2.657.13-5.164.341-7.5.24a16.527,16.527,0,0,1-4.293-.669c-1.429-.437-2.276-1.161-1.156-2.622,1.034-1.35,2.726-1.136,4.344-1.134a58.947,58.947,0,0,0,8.895-.38c6.126-1.3,12.443-3.908,16.622-8.005.353-.345,1.689-1.482,1.731-2.832.519.426.483,1.762.483,2.372a8.72,8.72,0,0,1-.255,1.685,3.826,3.826,0,0,1-.582,1.183,16.573,16.573,0,0,1-1.888,2.705,14.226,14.226,0,0,1-3.472,2.456A42.126,42.126,0,0,1,441.206,1315.577Z" transform="translate(-399.394 -1248.389)" fill="#454545"/>
    <path id="Trazado_604840" data-name="Trazado 604840" d="M438.938,1311.114a30.928,30.928,0,0,0,3.166-1.3c.7-.317,1.877-1.126,2.673-.844a6.571,6.571,0,0,1-2.748,1.474c-1.392.563-2.729,1.111-4.174,1.548a51.63,51.63,0,0,1-9.77,2.134c-1.387.147-3.7-.341-4.908.511-.751.53-1.1,1.537-2.225,1.273-.94-.221-.844-1.438-.319-2.025a4.022,4.022,0,0,1,2.324-.828,33.005,33.005,0,0,1,4.769-.1A36.524,36.524,0,0,0,438.938,1311.114Z" transform="translate(-399.356 -1247.485)" fill="#575757"/>
    <path id="Trazado_604841" data-name="Trazado 604841" d="M437.841,1306.3a22.759,22.759,0,0,0,2.522-.943c.61-.25,1.741-.95,2.484-.681a6.476,6.476,0,0,1-2.562,1.242c-1.163.427-2.191.82-3.284,1.164a45.1,45.1,0,0,1-8.867,1.976c-1.445.151-3.744-.4-5.22.378-.911.487-1.472,1.48-2.6,1.176-.945-.254-.52-1.483.242-2.05a5.2,5.2,0,0,1,2.632-.7c1.62-.122,3.118.075,4.707.077A33.366,33.366,0,0,0,437.841,1306.3Z" transform="translate(-399.421 -1248.076)" fill="#575757"/>
    <path id="Trazado_604842" data-name="Trazado 604842" d="M437.713,1301.439a20.148,20.148,0,0,0,2.514-.887c.613-.245,1.764-.945,2.524-.718a6.6,6.6,0,0,1-2.595,1.246c-1.166.414-2.184.776-3.255,1.077a52.6,52.6,0,0,1-8.728,1.821c-1.445.151-3.744-.4-5.22.379-.911.486-1.472,1.479-2.6,1.176-.945-.254-.52-1.485.242-2.051a5.2,5.2,0,0,1,2.632-.7c1.62-.122,3.118.075,4.707.078A36.628,36.628,0,0,0,437.713,1301.439Z" transform="translate(-399.416 -1248.741)" fill="#575757"/>
    <path id="Trazado_604843" data-name="Trazado 604843" d="M402.237,1296.324a5.064,5.064,0,0,1,1.882-3.017c-1.214,2.209-.408,4.358.537,6.521a6.454,6.454,0,0,1,.909,3.49c-.076.673-.625,1.413-1.423,1.011-.919-.462-1.437-2.3-1.737-3.176A7.59,7.59,0,0,1,402.237,1296.324Z" transform="translate(-401.877 -1249.632)" fill="#454545"/>
    <path id="Trazado_604844" data-name="Trazado 604844" d="M402.827,1297.981a3.263,3.263,0,0,1-.146-1.62,1.74,1.74,0,0,1,.668-1.6,16.876,16.876,0,0,0,.29,3.016,24.338,24.338,0,0,0,1.21,3.089c.23.6.663,2.719-.629,2.5-1.073-.185-.636-1.985-.7-2.721A7.38,7.38,0,0,0,402.827,1297.981Z" transform="translate(-401.776 -1249.432)" fill="#575757"/>
    <path id="Trazado_604845" data-name="Trazado 604845" d="M402.395,1292.4a5.07,5.07,0,0,1,1.882-3.016c-1.213,2.208-.408,4.358.537,6.521a6.443,6.443,0,0,1,.909,3.49c-.076.673-.623,1.413-1.423,1.011-.918-.463-1.437-2.3-1.736-3.176A7.588,7.588,0,0,1,402.395,1292.4Z" transform="translate(-401.856 -1250.172)" fill="#454545"/>
    <path id="Trazado_604846" data-name="Trazado 604846" d="M402.785,1294.183a3.275,3.275,0,0,1-.147-1.62,1.74,1.74,0,0,1,.669-1.6,16.875,16.875,0,0,0,.29,3.015,24.273,24.273,0,0,0,1.21,3.088c.23.6.663,2.719-.629,2.5-1.073-.186-.636-1.985-.7-2.721A7.382,7.382,0,0,0,402.785,1294.183Z" transform="translate(-401.782 -1249.955)" fill="#575757"/>
    <path id="Trazado_604847" data-name="Trazado 604847" d="M415.127,1308.635a4.972,4.972,0,0,0,1.356.009,1.752,1.752,0,0,0,.031-.54c-.528-.014-.787-.168-.762-.749a6.207,6.207,0,0,0,0-1.467,1.374,1.374,0,0,1,.067-1,4.317,4.317,0,0,0,1.1.328,1.3,1.3,0,0,0-.61-1.567,20.738,20.738,0,0,0-2.6-1.419,13.532,13.532,0,0,0-2.727-.968c-1.035-.263-.648,1.887-.641,2.359a8.883,8.883,0,0,0,.187,2.137,3.376,3.376,0,0,0,1.171,1.514A6.634,6.634,0,0,0,415.127,1308.635Z" transform="translate(-400.73 -1248.54)" fill="#363636"/>
    <path id="Trazado_604848" data-name="Trazado 604848" d="M410.6,1305.484l-.009-.033a7.875,7.875,0,0,1-.193-2.446c.026-.276-.034-1.318.349-1.375.124-.019.485.218.613.264.5.177,1.038.24,1.522.46.77.349,1.788.91,1.842,1.847a13.055,13.055,0,0,1-.4,2.6c-.072.468-.24,1.107-.825,1.124a2.381,2.381,0,0,1-1.665-.849A4.5,4.5,0,0,1,410.6,1305.484Z" transform="translate(-400.714 -1248.487)" fill="#757575"/>
    <path id="Trazado_604849" data-name="Trazado 604849" d="M410.533,1303.64c.061-.473-.281-1.758.474-1.663a3.926,3.926,0,0,1,1.408.484c.238.148.763.342.833.646-.248.117-.764-.157-1.017-.219s-.786-.332-1.012-.143C410.869,1303.036,411.438,1303.794,410.533,1303.64Z" transform="translate(-400.695 -1248.44)" fill="#b0b0b0"/>
    <path id="Trazado_604850" data-name="Trazado 604850" d="M410.888,1274.059c-.358.556-.862,1.151-1.136,1.662a16.559,16.559,0,0,0-1.091,2.594c-1.456,4.492-2.928,10.586-2.829,15.658-.015-.923-1.274-1.41-1.48-2.189a8.449,8.449,0,0,1,.008-3.623,57,57,0,0,1,.71-7.429c.7-2.2,1.388-4.1,2.119-6a12,12,0,0,1,1.457-2.8,4.4,4.4,0,0,0,1.54,1.869.546.546,0,0,0,.084.06A1.113,1.113,0,0,0,410.888,1274.059Z" transform="translate(-401.569 -1252.574)" fill="#242424"/>
    <path id="Trazado_604851" data-name="Trazado 604851" d="M405.836,1275.655c.465-.976,1.1-.9,1.222-.8-.067.612-.346.627.061.9a3.816,3.816,0,0,1,.987.757.921.921,0,0,0,.751.458,6.394,6.394,0,0,1,.61-1.127c.689.1.835.726.71,1.348a27.277,27.277,0,0,1-1.031,3.141,24.174,24.174,0,0,1-1.263,3.227c-.436,1.226-1.908-.374-2.239-.635a4.953,4.953,0,0,1-1.316-1.324,3.391,3.391,0,0,1-.123-1.983A15.005,15.005,0,0,1,405.836,1275.655Z" transform="translate(-401.574 -1252.179)" fill="#363636"/>
    <path id="Trazado_604852" data-name="Trazado 604852" d="M404.482,1281.349l.016.026a4.921,4.921,0,0,0,1.583,1.487c.218.123,1.018.75,1.321.382a3.732,3.732,0,0,0,.182-.762c.193-.59.538-1.154.722-1.744.34-.933.76-2.2.121-2.74a10.239,10.239,0,0,0-2.058-1,.923.923,0,0,0-1.283.181,3.859,3.859,0,0,0-.724,2.074A4.528,4.528,0,0,0,404.482,1281.349Z" transform="translate(-401.549 -1251.901)" fill="#757575"/>
    <path id="Trazado_604853" data-name="Trazado 604853" d="M406.819,1277.565c-.379-.2-1.154-1.257-1.579-.447a6.709,6.709,0,0,0-.611,1.651c-.06.312-.331.924-.147,1.155.3-.176.5-.825.639-1.106s.3-.942.6-1.064C406.175,1277.567,406.372,1278.528,406.819,1277.565Z" transform="translate(-401.533 -1251.901)" fill="#b0b0b0"/>
    <path id="Trazado_604854" data-name="Trazado 604854" d="M403.707,1286.167c.337-.973.8-.9.887-.808-.051.611-.126.7.175.967a2.649,2.649,0,0,1,.621.668c.141.226.315.454.586.448a5.822,5.822,0,0,1,.389-1.132c.531.088.685.713.646,1.336-.022,1.012-.174,2.075-.21,3.147a15.51,15.51,0,0,1-.291,3.207c-.195,1.221-1.429-.458-1.69-.736a7.59,7.59,0,0,1-1.114-1.371,5.7,5.7,0,0,1-.53-1.913A9.483,9.483,0,0,1,403.707,1286.167Z" transform="translate(-401.711 -1250.733)" fill="#363636"/>
    <path id="Trazado_604855" data-name="Trazado 604855" d="M403.831,1291.653l.016.026a6.55,6.55,0,0,0,1.313,1.552c.166.134.817.8.993.442a4.1,4.1,0,0,0,.022-.755c.035-.585.168-1.139.166-1.722.031-.926.074-2.184-.489-2.723a9.423,9.423,0,0,0-1.624-.986c-.264-.177-.645-.355-.871.166a3.589,3.589,0,0,0-.088,1.979A7.7,7.7,0,0,0,403.831,1291.653Z" transform="translate(-401.705 -1250.458)" fill="#757575"/>
    <path id="Trazado_604856" data-name="Trazado 604856" d="M404.61,1288.044c-.293-.194-.965-1.234-1.16-.448a5.217,5.217,0,0,0-.123,1.582c.028.3-.008.87.173,1.1.156-.156.139-.772.173-1.039s.014-.9.2-1.018C404.16,1288.043,404.465,1288.984,404.61,1288.044Z" transform="translate(-401.686 -1250.458)" fill="#b0b0b0"/>
    <path id="Trazado_604857" data-name="Trazado 604857" d="M445.832,1288.165c-.008.4-.023.793-.031,1.166-.168,7.894-7.047,9.267-13.133,8.116l-13.3-7.375a27.772,27.772,0,0,1,2-5.6c1.06-2.143,1.921-4.966,3.676-6.651.154-.145.29-.282.413-.419.976-1.091,1.09-2.007,1.128-3.875v-.023c.3.342.572.754.915,1.151,2.746,3.211,7.818,6.956,12.256,6.452,1.091-.122,3.226-1.159,4.241-.626.869.458,1.518,2.693,1.678,3.562A20.367,20.367,0,0,1,445.832,1288.165Z" transform="translate(-399.477 -1252.357)" fill="#3b3b3b"/>
    <path id="Trazado_604858" data-name="Trazado 604858" d="M427.8,1273.624v.023c-.039,1.868-.152,2.784-1.128,3.875-.123.136-.259.274-.413.419-1.754,1.686-2.615,4.508-3.676,6.651a27.772,27.772,0,0,0-2,5.6l-10.074-5.591c-.183-2.226,3.79-3.286,5.285-4.24a19.118,19.118,0,0,0,3.074-2.51h.008c1.143-1.1,2.211-2.242,3.462-3.241,1.053-.848,2.1-1.984,3.486-1.96A2.383,2.383,0,0,1,427.8,1273.624Z" transform="translate(-400.696 -1252.475)" fill="#333"/>
    <path id="Trazado_604859" data-name="Trazado 604859" d="M430.6,1256.921a12.007,12.007,0,0,1-2.5.419,30.338,30.338,0,0,0-8.649,2.128,8.7,8.7,0,0,0-3.111,2.006,33.324,33.324,0,0,0-2.014,2.975c-1.96,2.829-2.159,6.7-3.387,9.854a4.506,4.506,0,0,1-1.221,1.838c-2.265-1.526-2.852-5.233-1.258-9.9,1.624-4.736,4.34-8.183,7.97-9.343s6.636-2.364,10.663-1.868A5.341,5.341,0,0,1,430.6,1256.921Z" transform="translate(-401.101 -1254.915)" fill="#6b6b6b"/>
    <path id="Trazado_604860" data-name="Trazado 604860" d="M430.058,1283.592a14.534,14.534,0,0,0-.667,1.692,24.136,24.136,0,0,0-.482,2.888c-1.073,5.052-3.568,12.765-2.67,16.4-.238-.6-2.15-.2-2.733-.537-.658-.419-.925-1.154-.5-2.525.614-3.4.81-6.541,1.553-10.077.461-2.879.823-5.043,1.227-7.153a7.388,7.388,0,0,1,1.1-2.953,6.641,6.641,0,0,0,2.29,1.941,1.058,1.058,0,0,0,.117.068A1.925,1.925,0,0,0,430.058,1283.592Z" transform="translate(-399.004 -1251.281)" fill="#242424"/>
    <path id="Trazado_604861" data-name="Trazado 604861" d="M424.282,1285.53c.359-1.125,1.276-1.191,1.48-1.111.113.645-.284.713.395.934a4.963,4.963,0,0,1,1.628.742,1.969,1.969,0,0,0,1.1.563c.15-.379.134-.934.363-1.243a1.616,1.616,0,0,1,1.155,1.679,18.726,18.726,0,0,1-.617,3.56,15.235,15.235,0,0,1-1.212,3.393c-.655,1.345-2.481-.031-2.991-.18a9.5,9.5,0,0,1-2.265-.561c-.551-.331-.538-1.375-.5-2.323C422.808,1289.2,423.748,1287.092,424.282,1285.53Z" transform="translate(-399.004 -1250.858)" fill="#363636"/>
    <path id="Trazado_604862" data-name="Trazado 604862" d="M423.645,1292.8l.031.017a8.792,8.792,0,0,0,2.579.777c.315.071,1.332.59,1.753.139a3.573,3.573,0,0,0,.25-.862c.22-.66.57-1.258.734-1.892.274-1,.538-2.411-.338-3.13a7.582,7.582,0,0,0-3.054-1.112,1.721,1.721,0,0,0-1.926.779,4.685,4.685,0,0,0-.579,2.876C423.192,1291.22,423.076,1292.458,423.645,1292.8Z" transform="translate(-398.968 -1250.543)" fill="#757575"/>
    <path id="Trazado_604863" data-name="Trazado 604863" d="M426.482,1287.245c-.625-.163-2.182-1.017-2.581.028a7.586,7.586,0,0,0-.457,2.276c-.016.406-.355,1.381.035,1.458a4.418,4.418,0,0,0,.811-1.8c.139-.411.165-1.233.586-1.5C425.53,1287.351,426.172,1288.342,426.482,1287.245Z" transform="translate(-398.936 -1250.533)" fill="#b0b0b0"/>
    <path id="Trazado_604864" data-name="Trazado 604864" d="M422.608,1296.68a1.146,1.146,0,0,1,1.1-.932c.147.442-.167.544.4.6a3.934,3.934,0,0,1,1.382.294,1.647,1.647,0,0,0,.95.276,5.009,5.009,0,0,1,.233-1.093c.72.025,1.049.673,1.1,1.338.082,1.056-.035,2.057-.036,2.987a7.183,7.183,0,0,1-.287,2.47c-.367.991-2.168.131-2.649.089a11.056,11.056,0,0,1-2.183-.047c-.578-.172-.705-1.036-.778-1.833A12.025,12.025,0,0,1,422.608,1296.68Z" transform="translate(-399.14 -1249.297)" fill="#363636"/>
    <path id="Trazado_604865" data-name="Trazado 604865" d="M422.928,1302.224l.031.008a10.735,10.735,0,0,0,2.451.189c.287.018,1.254.315,1.544-.025.084-.107.032-.5.043-.621a13.426,13.426,0,0,0,.2-1.37,2.761,2.761,0,0,0-.766-2.441,5.144,5.144,0,0,0-2.467-.515,1.511,1.511,0,0,0-1.474.7,3.145,3.145,0,0,0-.336,2.223C422.321,1301.036,422.347,1302.051,422.928,1302.224Z" transform="translate(-399.102 -1249.063)" fill="#757575"/>
    <path id="Trazado_604866" data-name="Trazado 604866" d="M424.685,1297.708c-.5-.048-1.791-.5-2.029.251a5.212,5.212,0,0,0-.248,1.708c.014.322-.215,1.139.15,1.159a3.337,3.337,0,0,0,.552-1.479c.085-.318.05-.922.364-1.147C423.956,1297.886,424.538,1298.55,424.685,1297.708Z" transform="translate(-399.066 -1249.052)" fill="#b0b0b0"/>
    <path id="Trazado_604867" data-name="Trazado 604867" d="M451.267,1266.162c-.007.13-.015.29-.031.48v.008c-.3,3.836-2.1,18.4-2.829,20.661-.167.519-.3.961-.381,1.328-.1-.663-.191-1.334-.3-1.991,1.151-5.767,2.662-17.161,2.532-20.661-.076-1.937-2.631-1.93-5.606-.977-3.905,1.243-8.519,4.119-9.176,6.407-1.159,4.035.024,13.226-4.8,15.392a6.168,6.168,0,0,1-.793.29c-4.081,1.151-4.591-4.554-3.951-7.467.42-1.892.663-3.936,1.06-5.972.793-4.172,2.2-8.32,6.887-11.135,6.979-4.2,11.807-1.846,12.928-1.213a17.446,17.446,0,0,1,2.784,1.647A3.831,3.831,0,0,1,451.267,1266.162Z" transform="translate(-398.605 -1254.203)" fill="#575757"/>
    <path id="Trazado_604868" data-name="Trazado 604868" d="M449.589,1262.959a13.675,13.675,0,0,1-5.277.656,19.627,19.627,0,0,0-4.8.61c-3.631.9-5.812,4.431-6.856,7.779a63.342,63.342,0,0,0-1.488,8.2c-.389,2.3-.107,4.293-1.121,6.467a4.364,4.364,0,0,0-.168.428c-4.081,1.151-4.591-4.554-3.951-7.467.42-1.892.663-3.936,1.06-5.972.793-4.172,2.2-8.32,6.887-11.135,6.979-4.2,11.807-1.846,12.928-1.213A17.446,17.446,0,0,1,449.589,1262.959Z" transform="translate(-398.605 -1254.203)" fill="#6b6b6b"/>
    <g id="Grupo_176750" data-name="Grupo 176750" transform="translate(1.819 46.121)">
      <path id="Trazado_604869" data-name="Trazado 604869" d="M422.069,1302.759a1.725,1.725,0,0,0-1.326.381,1.348,1.348,0,0,0-.669,1.1c-.014.705,1.142.9,1.265.171l0-.023a.829.829,0,0,1,.209-.092c.292-.1.615-.106.827-.362A.713.713,0,0,0,422.069,1302.759Z" transform="translate(-401.198 -1294.458)" fill="#b0b0b0"/>
      <path id="Trazado_604870" data-name="Trazado 604870" d="M421.308,1309.011a1.082,1.082,0,0,1,.389-.25,1.12,1.12,0,0,0,.4-.449.436.436,0,0,0-.154-.587.921.921,0,0,0-.894-.088,2.03,2.03,0,0,0-.808.552A.676.676,0,1,0,421.308,1309.011Z" transform="translate(-401.201 -1293.792)" fill="#b0b0b0"/>
      <path id="Trazado_604871" data-name="Trazado 604871" d="M422.01,1313.147c-.63-.295-1.222.247-1.577.735s.422,1.071.843.651c.334-.334.772-.336.965-.82A.5.5,0,0,0,422.01,1313.147Z" transform="translate(-401.161 -1293.035)" fill="#b0b0b0"/>
      <path id="Trazado_604872" data-name="Trazado 604872" d="M403.5,1305a2.344,2.344,0,0,1,.02.963c-.084.772,1.277.787,1.213,0a3.3,3.3,0,0,0-.319-1.348A.5.5,0,0,0,403.5,1305Z" transform="translate(-403.481 -1294.23)" fill="#b0b0b0"/>
      <path id="Trazado_604873" data-name="Trazado 604873" d="M403.66,1300.638c.1.34.229.687.35,1.019a.253.253,0,0,0,.457.059,3.021,3.021,0,0,0,.106-1.2C404.617,1299.854,403.467,1299.957,403.66,1300.638Z" transform="translate(-403.459 -1294.823)" fill="#b0b0b0"/>
      <path id="Trazado_604874" data-name="Trazado 604874" d="M405.13,1296.919a.721.721,0,0,0,.006-.131.732.732,0,0,0-.085-.289,1.909,1.909,0,0,1-.215-.659c-.09-.547-.9-.473-1.034,0a2.917,2.917,0,0,0-.119,1.03.748.748,0,0,0,.931.708.665.665,0,0,0,.182-.1l-.007.027c.038-.016.059-.05.091-.074.013-.011.026-.021.039-.032a.606.606,0,0,0,.159-.231c.006-.015.013-.027.018-.042A.829.829,0,0,0,405.13,1296.919Z" transform="translate(-403.454 -1295.457)" fill="#b0b0b0"/>
    </g>
  </g>
</svg>
