<svg id="Grupo_176587" data-name="Grupo 176587" xmlns="http://www.w3.org/2000/svg" width="107.903" height="107.903" viewBox="0 0 107.903 107.903">
  <path id="Trazado_604353" data-name="Trazado 604353" d="M680.263,601.333V573.806l13.766-23.844,23.835-13.76H745.4l23.841,13.76L783,573.8v27.532l-13.764,23.842L745.4,638.939H717.864l-23.835-13.764Z" transform="translate(-677.684 -533.619)" fill="#f4efe9"/>
  <path id="Trazado_604354" data-name="Trazado 604354" d="M678,573.424V602.34l14.452,25.041,25.037,14.453h28.922l25.032-14.453L785.9,602.34V573.424l-14.46-25.04-25.032-14.453H717.485l-25.037,14.453Zm5.165,1.386,13.072-22.643L718.872,539.1h26.15l22.636,13.069,13.077,22.639v26.146l-13.077,22.643-22.636,13.071h-26.15l-22.639-13.071-13.072-22.643Z" transform="translate(-677.996 -533.931)" fill="#fdb053"/>
  <path id="Trazado_604355" data-name="Trazado 604355" d="M716.364,590.745l-16.42,2.8v3.132l16.42,9.5h22.749L762.3,592.78v-3.14l-23.191,1.105Z" transform="translate(-674.976 -526.266)" fill="#e09d38"/>
  <path id="Trazado_604356" data-name="Trazado 604356" d="M716.364,572.948l-16.42,9.48v13.949l16.42,9.48h22.749L762.3,592.473V578.523l-16.423-9.475Z" transform="translate(-674.976 -529.099)" fill="#ffec7a"/>
  <g id="Grupo_176585" data-name="Grupo 176585" transform="translate(17.377 54.392)">
    <path id="Trazado_604357" data-name="Trazado 604357" d="M717.282,607.006l-16.42-9.5V583.578l-5.336,5.915-.489-.18v.466L693.382,601.2l-.111.22v.475l16.422,9.481,20.4-1.357,9.941-3.017v-2.085l-6.018,1.324Z" transform="translate(-693.271 -581.492)" fill="#e09d38"/>
    <path id="Trazado_604358" data-name="Trazado 604358" d="M700.862,595.7V581.744l-5.825,7.821-1.767,12.112,16.422,9.487,20.4-1.363,9.941-4.626H717.282Z" transform="translate(-693.271 -581.744)" fill="#ffc654"/>
  </g>
  <path id="Trazado_604359" data-name="Trazado 604359" d="M716.506,573.8l-15.718,9.068v12.839L716.5,604.78h22.237l22.478-12.98V578.963l-15.71-9.069Z" transform="translate(-674.86 -528.983)" fill="#ffc654"/>
  <path id="Trazado_604360" data-name="Trazado 604360" d="M749.961,560.106,741,555.285l-11.514-1.375L724.4,587.165l33.59-6-1.9-11.736Z" transform="translate(-671.611 -531.182)" fill="#ffc654"/>
  <path id="Trazado_604361" data-name="Trazado 604361" d="M721.065,557.158l-12.2,6.857-6.133,9.322-1.94,11.728,32.191,2.1-.239-33.255Z" transform="translate(-674.86 -531.182)" fill="#ffc654"/>
  <path id="Trazado_604362" data-name="Trazado 604362" d="M724.548,575.23l8.822-7.484,13.284-4.946-13.284,3.978-9.778,7.252-6.76,14.277L714.6,604.727l22.111-.164-20.09-.986,1.417-14.7Z" transform="translate(-672.96 -529.959)" fill="#f2b63d"/>
  <g id="Grupo_176586" data-name="Grupo 176586" transform="translate(25.983 23.785)">
    <path id="Trazado_604363" data-name="Trazado 604363" d="M700.837,593.235l.8-4.908-.359-7.759Z" transform="translate(-700.837 -551.299)" fill="#f2b63d"/>
    <path id="Trazado_604364" data-name="Trazado 604364" d="M709.81,566.075l-6.76,14.28-2.214,16.42,3.414-15.854,6.527-13.649,8.817-7.481,13.279-4.953-13.279,3.991Z" transform="translate(-700.837 -554.839)" fill="#f2b63d"/>
  </g>
  <path id="Trazado_604365" data-name="Trazado 604365" d="M740.829,584.36l-6.312,10.964v7.939l21.608-12.476v-7.944l-6.337-3.648Z" transform="translate(-670.219 -527.703)" fill="#d66b24" opacity="0.2"/>
</svg>
