<svg id="Grupo_176694" data-name="Grupo 176694" xmlns="http://www.w3.org/2000/svg" width="107.903" height="107.903" viewBox="0 0 107.903 107.903">
  <path id="Trazado_604446" data-name="Trazado 604446" d="M680.263,842.468v-27.53L694.029,791.1l23.835-13.76H745.4l23.839,13.76L783,814.934v27.534l-13.768,23.843L745.4,880.075H717.864l-23.835-13.764Z" transform="translate(-677.684 -774.753)" fill="#f4efe9"/>
  <path id="Trazado_604447" data-name="Trazado 604447" d="M678,814.56v28.916l14.45,25.039,25.042,14.452h28.92l25.032-14.452,14.46-25.039v-28.92l-14.46-25.036-25.032-14.455h-28.92L692.446,789.52Zm5.165,1.382,13.072-22.64,22.639-13.068h26.148L767.657,793.3l13.072,22.64v26.144l-13.072,22.643L745.019,877.8H718.872l-22.639-13.07-13.072-22.643Z" transform="translate(-677.996 -775.065)" fill="#fdb053"/>
  <g id="Grupo_176689" data-name="Grupo 176689" transform="translate(29.428 15.429)">
    <path id="Trazado_604448" data-name="Trazado 604448" d="M751.709,832.861l-5.106-2.946-12.915-2.082-29.823-17.223v-2.789l2.986-1.726h3.785l-3.925-2.26v-2.795l2.99-1.726h3.783L709,796.726v-2.793l2.99-1.724H715.9l4.037,2.334v-2.716l2.994-1.728h3.908l35.647,20.581,3.5,7.392,5.666,3.273Z" transform="translate(-703.865 -788.425)" opacity="0.3"/>
    <g id="Grupo_176607" data-name="Grupo 176607" transform="translate(0.629 2.305)">
      <path id="Trazado_604449" data-name="Trazado 604449" d="M761.923,811.05l.94-6.383V802.36l-14.456-7-3.3.814v2.3l6.36,6.1-.233.308L726.6,790.654h-3.571l-2.529,1.218v2.3l19.39,11.193v.405l-.5.287h-.705l-23.03-13.3h-3.571l-2.529,1.22v2.3l23.032,13.3v.405l-.5.285h-.7l-18.022-10.405h-3.575l-2.526,1.222v2.3l18.02,10.405v.405l-.493.285h-.7l-13.573-7.838h-3.577l-2.527,1.218v2.309l29.511,17.035,12.812,2.021,18.685-10.784Z" transform="translate(-704.418 -790.654)" fill="#0a0808"/>
    </g>
    <path id="Trazado_604450" data-name="Trazado 604450" d="M723.024,788.628l-2.529,1.461v2.063l19.39,11.195v.4l-.5.291h-.705l-23.03-13.3h-3.571l-2.529,1.459v2.068l23.032,13.3v.4l-.5.291h-.7l-18.022-10.405h-3.575l-2.526,1.457v2.067l18.02,10.4v.405l-.493.287h-.7l-13.573-7.84h-3.577l-2.527,1.459v2.063l29.511,17.043,12.812,2.021,18.685-10.788-3.5-7.4L726.6,788.628Z" transform="translate(-703.789 -788.628)" fill="#574943"/>
    <g id="Grupo_176608" data-name="Grupo 176608" transform="translate(42.952 27.794)">
      <path id="Trazado_604451" data-name="Trazado 604451" d="M746.514,827.668l1.6-3.225-6.492-1.9v2.3Z" transform="translate(-741.622 -811.755)" fill="#377691"/>
      <path id="Trazado_604452" data-name="Trazado 604452" d="M745.922,828.631l18.683-10.784v-2.306l-9.505,3.982-9.178,6.8Z" transform="translate(-741.03 -812.719)" fill="#2d5a78"/>
      <path id="Trazado_604453" data-name="Trazado 604453" d="M746.514,826.67,765.2,815.884l-4.89-2.824-18.685,10.788Z" transform="translate(-741.622 -813.06)" fill="#428aa8"/>
    </g>
    <g id="Grupo_176609" data-name="Grupo 176609" transform="translate(27.366 4.125)">
      <path id="Trazado_604454" data-name="Trazado 604454" d="M745.174,792.763l-3.3,2.542v.576l6.36,6.094-.233.31-3.355,4.567-16.727,12.91v.576l5.613,3.24h6.626l16.729-9.658,1.8-5.467.94-6.383v-.575Z" transform="translate(-727.921 -792.184)" fill="#2d5a78"/>
      <path id="Trazado_604455" data-name="Trazado 604455" d="M745.174,792.254l-2.766,1.166-.531,1.956,6.36,6.093-.233.314-3.355,4.565L727.921,816v3.827l5.613,3.24h6.626l16.729-9.658,1.8-5.464.94-6.387-11.069-9Z" transform="translate(-727.921 -792.254)" fill="#428aa8"/>
    </g>
    <g id="Grupo_176610" data-name="Grupo 176610" transform="translate(17.5 0.061)">
      <path id="Trazado_604456" data-name="Trazado 604456" d="M719.248,791.266v.417l2.111,1.218h2.984l2.109-1.218v-.417Z" transform="translate(-719.248 -788.326)" fill="#2d5a78"/>
      <path id="Trazado_604457" data-name="Trazado 604457" d="M721.358,788.681l-2.111,1.216v1.724l2.111,1.218h2.984l2.109-1.218V789.9l-2.109-1.216Z" transform="translate(-719.248 -788.681)" fill="#428aa8"/>
    </g>
    <g id="Grupo_176631" data-name="Grupo 176631" transform="translate(22.074 2.726)">
      <g id="Grupo_176611" data-name="Grupo 176611" transform="translate(6.035 1.487)">
        <path id="Trazado_604458" data-name="Trazado 604458" d="M728.575,793.005v.417l.55.319h.78l.547-.319v-.417Z" transform="translate(-728.575 -792.239)" fill="#2d5a78"/>
        <path id="Trazado_604459" data-name="Trazado 604459" d="M728.575,792.649v.449l.55.319h.78l.547-.319v-.449l-.547-.317h-.78Z" transform="translate(-728.575 -792.331)" fill="#428aa8"/>
      </g>
      <g id="Grupo_176612" data-name="Grupo 176612" transform="translate(3.08 1.755)">
        <path id="Trazado_604460" data-name="Trazado 604460" d="M725.977,793.237v.417l.551.321h.78l.547-.321v-.417Z" transform="translate(-725.977 -792.475)" fill="#2d5a78"/>
        <path id="Trazado_604461" data-name="Trazado 604461" d="M725.977,792.88v.449l.551.319h.78l.547-.319v-.449l-.547-.313h-.78Z" transform="translate(-725.977 -792.567)" fill="#428aa8"/>
      </g>
      <g id="Grupo_176613" data-name="Grupo 176613" transform="translate(3.462)">
        <path id="Trazado_604462" data-name="Trazado 604462" d="M726.313,791.7v.419l.549.316h.776l.549-.316V791.7Z" transform="translate(-726.313 -790.931)" fill="#2d5a78"/>
        <path id="Trazado_604463" data-name="Trazado 604463" d="M726.313,791.345v.446l.549.317h.776l.549-.317v-.446l-.549-.321h-.776Z" transform="translate(-726.313 -791.024)" fill="#428aa8"/>
      </g>
      <g id="Grupo_176614" data-name="Grupo 176614" transform="translate(0 1.998)">
        <path id="Trazado_604464" data-name="Trazado 604464" d="M723.269,793.454v.415l.552.319h.778l.549-.319v-.415Z" transform="translate(-723.269 -792.687)" fill="#2d5a78"/>
        <path id="Trazado_604465" data-name="Trazado 604465" d="M723.269,793.1v.449l.552.315h.778l.549-.315V793.1l-.549-.317h-.778Z" transform="translate(-723.269 -792.78)" fill="#428aa8"/>
      </g>
      <g id="Grupo_176615" data-name="Grupo 176615" transform="translate(5.655 3.238)">
        <path id="Trazado_604466" data-name="Trazado 604466" d="M728.24,794.545v.417l.551.317h.778l.551-.317v-.417Z" transform="translate(-728.24 -793.778)" fill="#2d5a78"/>
        <path id="Trazado_604467" data-name="Trazado 604467" d="M728.24,794.19v.447l.551.315h.778l.551-.315v-.447l-.551-.319h-.778Z" transform="translate(-728.24 -793.871)" fill="#428aa8"/>
      </g>
      <g id="Grupo_176616" data-name="Grupo 176616" transform="translate(2.579 3.485)">
        <path id="Trazado_604468" data-name="Trazado 604468" d="M725.536,794.763v.417l.551.317h.776l.547-.317v-.417Z" transform="translate(-725.536 -793.995)" fill="#2d5a78"/>
        <path id="Trazado_604469" data-name="Trazado 604469" d="M725.536,794.4v.453l.551.314h.776l.547-.314,0-.453-.55-.316h-.776Z" transform="translate(-725.536 -794.087)" fill="#428aa8"/>
      </g>
      <g id="Grupo_176617" data-name="Grupo 176617" transform="translate(5.152 4.968)">
        <path id="Trazado_604470" data-name="Trazado 604470" d="M727.8,796.067v.417l.55.317h.776l.551-.317v-.417Z" transform="translate(-727.798 -795.299)" fill="#2d5a78"/>
        <path id="Trazado_604471" data-name="Trazado 604471" d="M727.8,795.711v.449l.55.319h.776l.551-.319v-.449l-.551-.319h-.776Z" transform="translate(-727.798 -795.392)" fill="#428aa8"/>
      </g>
      <g id="Grupo_176618" data-name="Grupo 176618" transform="translate(8.612 2.975)">
        <path id="Trazado_604472" data-name="Trazado 604472" d="M730.84,794.313v.417l.549.317h.778l.549-.317v-.417Z" transform="translate(-730.84 -793.546)" fill="#2d5a78"/>
        <path id="Trazado_604473" data-name="Trazado 604473" d="M730.84,793.956v.449l.549.315h.778l.549-.315v-.449l-.549-.317h-.778Z" transform="translate(-730.84 -793.639)" fill="#428aa8"/>
      </g>
      <g id="Grupo_176619" data-name="Grupo 176619" transform="translate(8.149 4.68)">
        <path id="Trazado_604474" data-name="Trazado 604474" d="M730.433,795.808v.423l.547.31h.776l.551-.31v-.423Z" transform="translate(-730.433 -795.046)" fill="#2d5a78"/>
        <path id="Trazado_604475" data-name="Trazado 604475" d="M730.433,795.451v.449l.547.319h.776l.551-.319v-.449l-.551-.313h-.776Z" transform="translate(-730.433 -795.138)" fill="#428aa8"/>
      </g>
      <g id="Grupo_176620" data-name="Grupo 176620" transform="translate(7.645 6.41)">
        <path id="Trazado_604476" data-name="Trazado 604476" d="M729.989,797.329v.419l.547.321h.78l.547-.321v-.419Z" transform="translate(-729.989 -796.566)" fill="#2d5a78"/>
        <path id="Trazado_604477" data-name="Trazado 604477" d="M729.989,796.974v.447l.547.319h.78l.547-.319,0-.447-.55-.315h-.78Z" transform="translate(-729.989 -796.659)" fill="#428aa8"/>
      </g>
      <g id="Grupo_176621" data-name="Grupo 176621" transform="translate(11.105 4.414)">
        <path id="Trazado_604478" data-name="Trazado 604478" d="M733.031,795.577v.417l.551.319h.776l.547-.319v-.417Z" transform="translate(-733.031 -794.812)" fill="#2d5a78"/>
        <path id="Trazado_604479" data-name="Trazado 604479" d="M733.031,795.22v.449l.551.319h.776l.547-.319,0-.449-.549-.315h-.776Z" transform="translate(-733.031 -794.904)" fill="#428aa8"/>
      </g>
      <g id="Grupo_176622" data-name="Grupo 176622" transform="translate(10.489 6.031)">
        <path id="Trazado_604480" data-name="Trazado 604480" d="M732.49,797v.418l.55.319h.78l.545-.319V797Z" transform="translate(-732.49 -796.234)" fill="#2d5a78"/>
        <path id="Trazado_604481" data-name="Trazado 604481" d="M732.49,796.641v.447l.55.321h.78l.545-.321v-.447l-.545-.316h-.78Z" transform="translate(-732.49 -796.326)" fill="#428aa8"/>
      </g>
      <g id="Grupo_176623" data-name="Grupo 176623" transform="translate(13.445 5.766)">
        <path id="Trazado_604482" data-name="Trazado 604482" d="M735.088,796.765v.419l.551.319h.776l.55-.319v-.419Z" transform="translate(-735.088 -796)" fill="#2d5a78"/>
        <path id="Trazado_604483" data-name="Trazado 604483" d="M735.088,796.41v.447l.551.319h.776l.55-.319,0-.447-.552-.317h-.776Z" transform="translate(-735.088 -796.092)" fill="#428aa8"/>
      </g>
      <g id="Grupo_176624" data-name="Grupo 176624" transform="translate(9.988 7.763)">
        <path id="Trazado_604484" data-name="Trazado 604484" d="M732.05,798.522v.413l.549.319h.776l.548-.319v-.413Z" transform="translate(-732.05 -797.756)" fill="#2d5a78"/>
        <path id="Trazado_604485" data-name="Trazado 604485" d="M732.05,798.164v.451l.549.315h.776l.548-.315v-.451l-.548-.315H732.6Z" transform="translate(-732.05 -797.848)" fill="#428aa8"/>
      </g>
      <g id="Grupo_176625" data-name="Grupo 176625" transform="translate(12.768 7.345)">
        <path id="Trazado_604486" data-name="Trazado 604486" d="M734.493,798.154v.419l.547.315h.78l.55-.315v-.419Z" transform="translate(-734.493 -797.388)" fill="#2d5a78"/>
        <path id="Trazado_604487" data-name="Trazado 604487" d="M734.493,797.8v.447l.547.316h.78l.55-.316V797.8l-.55-.319h-.78Z" transform="translate(-734.493 -797.48)" fill="#428aa8"/>
      </g>
      <g id="Grupo_176626" data-name="Grupo 176626" transform="translate(15.724 7.079)">
        <path id="Trazado_604488" data-name="Trazado 604488" d="M737.091,797.919v.419l.547.319h.78l.549-.319v-.419Z" transform="translate(-737.091 -797.154)" fill="#2d5a78"/>
        <path id="Trazado_604489" data-name="Trazado 604489" d="M737.091,797.568v.444l.547.319h.78l.549-.319v-.444l-.549-.321h-.78Z" transform="translate(-737.091 -797.247)" fill="#428aa8"/>
      </g>
      <g id="Grupo_176627" data-name="Grupo 176627" transform="translate(12.263 9.075)">
        <path id="Trazado_604490" data-name="Trazado 604490" d="M734.05,799.677v.419l.551.315h.776l.551-.315v-.419Z" transform="translate(-734.05 -798.908)" fill="#2d5a78"/>
        <path id="Trazado_604491" data-name="Trazado 604491" d="M734.05,799.323v.447l.551.315h.776l.551-.315v-.447l-.551-.321H734.6Z" transform="translate(-734.05 -799.001)" fill="#428aa8"/>
      </g>
      <g id="Grupo_176628" data-name="Grupo 176628" transform="translate(15.045 8.658)">
        <path id="Trazado_604492" data-name="Trazado 604492" d="M736.495,799.309v.419l.549.315h.776l.55-.315v-.419Z" transform="translate(-736.495 -798.542)" fill="#2d5a78"/>
        <path id="Trazado_604493" data-name="Trazado 604493" d="M736.495,798.954v.447l.549.319h.776l.55-.319v-.447l-.55-.319h-.776Z" transform="translate(-736.495 -798.635)" fill="#428aa8"/>
      </g>
      <g id="Grupo_176629" data-name="Grupo 176629" transform="translate(17.998 8.394)">
        <path id="Trazado_604494" data-name="Trazado 604494" d="M739.091,799.077v.419l.55.315h.78l.547-.315v-.419Z" transform="translate(-739.091 -798.31)" fill="#2d5a78"/>
        <path id="Trazado_604495" data-name="Trazado 604495" d="M739.091,798.722v.448l.55.315h.78l.547-.315v-.448l-.547-.319h-.78Z" transform="translate(-739.091 -798.403)" fill="#428aa8"/>
      </g>
      <g id="Grupo_176630" data-name="Grupo 176630" transform="translate(14.542 10.392)">
        <path id="Trazado_604496" data-name="Trazado 604496" d="M736.053,800.831v.419l.549.315h.776l.551-.315v-.419Z" transform="translate(-736.053 -800.067)" fill="#2d5a78"/>
        <path id="Trazado_604497" data-name="Trazado 604497" d="M736.053,800.477v.447l.549.319h.776l.551-.319v-.447l-.551-.317H736.6Z" transform="translate(-736.053 -800.159)" fill="#428aa8"/>
      </g>
    </g>
    <g id="Grupo_176632" data-name="Grupo 176632" transform="translate(4.19 9.264)">
      <path id="Trazado_604498" data-name="Trazado 604498" d="M707.548,799.354v.419l2.109,1.216h2.984l2.107-1.216v-.419Z" transform="translate(-707.548 -796.416)" fill="#2d5a78"/>
      <path id="Trazado_604499" data-name="Trazado 604499" d="M709.657,796.771l-2.109,1.214v1.724l2.109,1.216h2.984l2.107-1.216v-1.724l-2.107-1.214Z" transform="translate(-707.548 -796.771)" fill="#428aa8"/>
    </g>
    <g id="Grupo_176650" data-name="Grupo 176650" transform="translate(8.941 12.007)">
      <g id="Grupo_176633" data-name="Grupo 176633" transform="translate(3.46)">
        <path id="Trazado_604500" data-name="Trazado 604500" d="M714.766,799.853v.417l.549.321h.776l.551-.321v-.417Z" transform="translate(-714.766 -799.091)" fill="#2d5a78"/>
        <path id="Trazado_604501" data-name="Trazado 604501" d="M714.766,799.5v.449l.549.319h.776l.551-.319V799.5l-.551-.313h-.776Z" transform="translate(-714.766 -799.183)" fill="#428aa8"/>
      </g>
      <g id="Grupo_176634" data-name="Grupo 176634" transform="translate(3.08 1.747)">
        <path id="Trazado_604502" data-name="Trazado 604502" d="M714.432,801.394v.417l.549.316h.776l.549-.316v-.417Z" transform="translate(-714.432 -800.626)" fill="#2d5a78"/>
        <path id="Trazado_604503" data-name="Trazado 604503" d="M714.432,801.038v.449l.549.317h.776l.549-.317v-.449l-.549-.319h-.776Z" transform="translate(-714.432 -800.719)" fill="#428aa8"/>
      </g>
      <g id="Grupo_176635" data-name="Grupo 176635" transform="translate(0 1.994)">
        <path id="Trazado_604504" data-name="Trazado 604504" d="M711.724,801.608v.419l.55.319h.774l.554-.319v-.419Z" transform="translate(-711.724 -800.843)" fill="#2d5a78"/>
        <path id="Trazado_604505" data-name="Trazado 604505" d="M711.724,801.253v.448l.55.319h.774l.554-.319v-.448l-.554-.317h-.774Z" transform="translate(-711.724 -800.935)" fill="#428aa8"/>
      </g>
      <g id="Grupo_176636" data-name="Grupo 176636" transform="translate(2.575 3.483)">
        <path id="Trazado_604506" data-name="Trazado 604506" d="M713.988,802.915v.417l.551.321h.778l.549-.321v-.417Z" transform="translate(-713.988 -802.152)" fill="#2d5a78"/>
        <path id="Trazado_604507" data-name="Trazado 604507" d="M713.988,802.562v.445l.551.321h.778l.549-.321v-.445l-.549-.317h-.778Z" transform="translate(-713.988 -802.245)" fill="#428aa8"/>
      </g>
      <g id="Grupo_176637" data-name="Grupo 176637" transform="translate(6.033 1.483)">
        <path id="Trazado_604508" data-name="Trazado 604508" d="M717.028,801.161v.417l.549.317h.778l.553-.317v-.417Z" transform="translate(-717.028 -800.394)" fill="#2d5a78"/>
        <path id="Trazado_604509" data-name="Trazado 604509" d="M717.028,800.8v.451l.549.319h.778l.553-.319V800.8l-.553-.315h-.778Z" transform="translate(-717.028 -800.487)" fill="#428aa8"/>
      </g>
      <g id="Grupo_176638" data-name="Grupo 176638" transform="translate(5.655 3.238)">
        <path id="Trazado_604510" data-name="Trazado 604510" d="M716.7,802.7v.417l.549.317h.78l.547-.317V802.7Z" transform="translate(-716.695 -801.937)" fill="#2d5a78"/>
        <path id="Trazado_604511" data-name="Trazado 604511" d="M716.7,802.341v.453l.549.315h.78l.547-.315v-.453l-.547-.312h-.78Z" transform="translate(-716.695 -802.03)" fill="#428aa8"/>
      </g>
      <g id="Grupo_176639" data-name="Grupo 176639" transform="translate(5.148 4.967)">
        <path id="Trazado_604512" data-name="Trazado 604512" d="M716.25,804.223v.419l.552.317h.776l.549-.317v-.419Z" transform="translate(-716.25 -803.456)" fill="#2d5a78"/>
        <path id="Trazado_604513" data-name="Trazado 604513" d="M716.25,803.868v.447l.552.317h.776l.549-.317v-.447l-.549-.319H716.8Z" transform="translate(-716.25 -803.549)" fill="#428aa8"/>
      </g>
      <g id="Grupo_176640" data-name="Grupo 176640" transform="translate(8.612 2.971)">
        <path id="Trazado_604514" data-name="Trazado 604514" d="M719.295,802.47v.413l.547.321h.78l.547-.321v-.413Z" transform="translate(-719.295 -801.701)" fill="#2d5a78"/>
        <path id="Trazado_604515" data-name="Trazado 604515" d="M719.295,802.11v.453l.547.315h.78l.547-.315v-.453l-.547-.315h-.78Z" transform="translate(-719.295 -801.794)" fill="#428aa8"/>
      </g>
      <g id="Grupo_176641" data-name="Grupo 176641" transform="translate(8.146 4.672)">
        <path id="Trazado_604516" data-name="Trazado 604516" d="M718.885,803.965v.419l.549.319h.778l.547-.319v-.419Z" transform="translate(-718.885 -803.197)" fill="#2d5a78"/>
        <path id="Trazado_604517" data-name="Trazado 604517" d="M718.885,803.609v.449l.549.317h.778l.547-.317v-.449l-.547-.319h-.778Z" transform="translate(-718.885 -803.29)" fill="#428aa8"/>
      </g>
      <g id="Grupo_176642" data-name="Grupo 176642" transform="translate(11.099 4.408)">
        <path id="Trazado_604518" data-name="Trazado 604518" d="M721.481,803.734v.417l.55.315h.778l.551-.315v-.417Z" transform="translate(-721.481 -802.965)" fill="#2d5a78"/>
        <path id="Trazado_604519" data-name="Trazado 604519" d="M721.481,803.377v.449l.55.317h.778l.551-.317v-.449l-.551-.319h-.778Z" transform="translate(-721.481 -803.058)" fill="#428aa8"/>
      </g>
      <g id="Grupo_176643" data-name="Grupo 176643" transform="translate(7.645 6.408)">
        <path id="Trazado_604520" data-name="Trazado 604520" d="M718.445,805.486v.42l.547.317h.778l.549-.317v-.42Z" transform="translate(-718.445 -804.723)" fill="#2d5a78"/>
        <path id="Trazado_604521" data-name="Trazado 604521" d="M718.445,805.133v.446l.547.321h.778l.549-.321v-.446l-.549-.317h-.778Z" transform="translate(-718.445 -804.816)" fill="#428aa8"/>
      </g>
      <g id="Grupo_176644" data-name="Grupo 176644" transform="translate(10.489 6.026)">
        <path id="Trazado_604522" data-name="Trazado 604522" d="M720.945,805.154v.419l.549.317h.778l.549-.317v-.419Z" transform="translate(-720.945 -804.387)" fill="#2d5a78"/>
        <path id="Trazado_604523" data-name="Trazado 604523" d="M720.945,804.8v.447l.549.321h.778l.549-.321V804.8l-.549-.319h-.778Z" transform="translate(-720.945 -804.48)" fill="#428aa8"/>
      </g>
      <g id="Grupo_176645" data-name="Grupo 176645" transform="translate(13.445 5.764)">
        <path id="Trazado_604524" data-name="Trazado 604524" d="M723.543,804.922v.419l.547.314h.78l.547-.314v-.419Z" transform="translate(-723.543 -804.157)" fill="#2d5a78"/>
        <path id="Trazado_604525" data-name="Trazado 604525" d="M723.543,804.567v.447l.547.319h.78l.547-.319v-.447l-.547-.317h-.78Z" transform="translate(-723.543 -804.249)" fill="#428aa8"/>
      </g>
      <g id="Grupo_176646" data-name="Grupo 176646" transform="translate(9.985 7.761)">
        <path id="Trazado_604526" data-name="Trazado 604526" d="M720.5,806.679v.417l.551.316h.776l.551-.316v-.417Z" transform="translate(-720.502 -805.913)" fill="#2d5a78"/>
        <path id="Trazado_604527" data-name="Trazado 604527" d="M720.5,806.319v.453l.551.316h.776l.551-.316v-.453l-.551-.314h-.776Z" transform="translate(-720.502 -806.005)" fill="#428aa8"/>
      </g>
      <g id="Grupo_176647" data-name="Grupo 176647" transform="translate(12.764 7.339)">
        <path id="Trazado_604528" data-name="Trazado 604528" d="M722.945,806.308v.419l.549.315h.78l.55-.315v-.419Z" transform="translate(-722.945 -805.541)" fill="#2d5a78"/>
        <path id="Trazado_604529" data-name="Trazado 604529" d="M722.945,805.953v.447l.549.319h.78l.55-.319v-.447l-.55-.319h-.78Z" transform="translate(-722.945 -805.634)" fill="#428aa8"/>
      </g>
      <g id="Grupo_176648" data-name="Grupo 176648" transform="translate(15.72 7.073)">
        <path id="Trazado_604530" data-name="Trazado 604530" d="M725.543,806.074v.42l.55.314h.776l.55-.314v-.42Z" transform="translate(-725.543 -805.308)" fill="#2d5a78"/>
        <path id="Trazado_604531" data-name="Trazado 604531" d="M725.543,805.722v.446l.55.315h.776l.55-.315v-.446l-.55-.321h-.776Z" transform="translate(-725.543 -805.401)" fill="#428aa8"/>
      </g>
      <g id="Grupo_176649" data-name="Grupo 176649" transform="translate(12.261 9.069)">
        <path id="Trazado_604532" data-name="Trazado 604532" d="M722.5,807.831v.417l.549.315h.778l.549-.315v-.417Z" transform="translate(-722.503 -807.062)" fill="#2d5a78"/>
        <path id="Trazado_604533" data-name="Trazado 604533" d="M722.5,807.476v.447l.549.313h.778l.549-.313v-.447l-.549-.321h-.778Z" transform="translate(-722.503 -807.155)" fill="#428aa8"/>
      </g>
    </g>
    <g id="Grupo_176651" data-name="Grupo 176651" transform="translate(1.476 16.087)">
      <path id="Trazado_604534" data-name="Trazado 604534" d="M705.162,805.355v.419l2.109,1.216h2.984l2.111-1.216v-.419Z" transform="translate(-705.162 -802.413)" fill="#2d5a78"/>
      <path id="Trazado_604535" data-name="Trazado 604535" d="M707.271,802.769l-2.109,1.22v1.722l2.109,1.218h2.984l2.111-1.218v-1.722l-2.111-1.22Z" transform="translate(-705.162 -802.769)" fill="#428aa8"/>
    </g>
    <g id="Grupo_176663" data-name="Grupo 176663" transform="translate(6.19 18.807)">
      <g id="Grupo_176652" data-name="Grupo 176652" transform="translate(3.458)">
        <path id="Trazado_604536" data-name="Trazado 604536" d="M712.346,805.836v.419l.551.315h.778l.551-.315v-.419Z" transform="translate(-712.346 -805.067)" fill="#2d5a78"/>
        <path id="Trazado_604537" data-name="Trazado 604537" d="M712.346,805.481v.447l.551.315h.778l.551-.315v-.447l-.551-.321H712.9Z" transform="translate(-712.346 -805.16)" fill="#428aa8"/>
      </g>
      <g id="Grupo_176653" data-name="Grupo 176653" transform="translate(3.078 1.753)">
        <path id="Trazado_604538" data-name="Trazado 604538" d="M712.012,807.377v.417l.55.317h.776l.551-.317v-.417Z" transform="translate(-712.012 -806.608)" fill="#2d5a78"/>
        <path id="Trazado_604539" data-name="Trazado 604539" d="M712.012,807.022v.447l.55.315h.776l.551-.315v-.447l-.551-.321h-.776Z" transform="translate(-712.012 -806.701)" fill="#428aa8"/>
      </g>
      <g id="Grupo_176654" data-name="Grupo 176654" transform="translate(0 2)">
        <path id="Trazado_604540" data-name="Trazado 604540" d="M709.306,807.59v.422l.551.312h.776l.551-.312v-.422Z" transform="translate(-709.306 -806.826)" fill="#2d5a78"/>
        <path id="Trazado_604541" data-name="Trazado 604541" d="M709.306,807.235v.447l.551.319h.776l.551-.319v-.447l-.551-.317h-.776Z" transform="translate(-709.306 -806.918)" fill="#428aa8"/>
      </g>
      <g id="Grupo_176655" data-name="Grupo 176655" transform="translate(2.577 3.485)">
        <path id="Trazado_604542" data-name="Trazado 604542" d="M711.571,808.9v.419l.549.315h.776l.55-.315V808.9Z" transform="translate(-711.571 -808.131)" fill="#2d5a78"/>
        <path id="Trazado_604543" data-name="Trazado 604543" d="M711.571,808.543v.447l.549.321h.776l.55-.321v-.447l-.55-.319h-.776Z" transform="translate(-711.571 -808.224)" fill="#428aa8"/>
      </g>
      <g id="Grupo_176656" data-name="Grupo 176656" transform="translate(6.033 1.489)">
        <path id="Trazado_604544" data-name="Trazado 604544" d="M714.61,807.143v.419l.549.315h.778l.551-.315v-.419Z" transform="translate(-714.61 -806.377)" fill="#2d5a78"/>
        <path id="Trazado_604545" data-name="Trazado 604545" d="M714.61,806.789v.447l.549.315h.778l.551-.315,0-.447-.552-.319h-.778Z" transform="translate(-714.61 -806.469)" fill="#428aa8"/>
      </g>
      <g id="Grupo_176657" data-name="Grupo 176657" transform="translate(5.655 3.242)">
        <path id="Trazado_604546" data-name="Trazado 604546" d="M714.277,808.681v.417l.547.321h.78l.551-.321v-.417Z" transform="translate(-714.277 -807.918)" fill="#2d5a78"/>
        <path id="Trazado_604547" data-name="Trazado 604547" d="M714.277,808.324v.449l.547.319h.78l.551-.319v-.449l-.551-.313h-.78Z" transform="translate(-714.277 -808.01)" fill="#428aa8"/>
      </g>
      <g id="Grupo_176658" data-name="Grupo 176658" transform="translate(5.15 4.972)">
        <path id="Trazado_604548" data-name="Trazado 604548" d="M713.833,810.205v.415l.55.319h.776l.55-.319v-.415Z" transform="translate(-713.833 -809.439)" fill="#2d5a78"/>
        <path id="Trazado_604549" data-name="Trazado 604549" d="M713.833,809.847v.451l.55.317h.776l.55-.317v-.451l-.55-.315h-.776Z" transform="translate(-713.833 -809.531)" fill="#428aa8"/>
      </g>
      <g id="Grupo_176659" data-name="Grupo 176659" transform="translate(8.61 2.977)">
        <path id="Trazado_604550" data-name="Trazado 604550" d="M716.875,808.449v.417l.551.319h.776l.549-.319v-.417Z" transform="translate(-716.875 -807.684)" fill="#2d5a78"/>
        <path id="Trazado_604551" data-name="Trazado 604551" d="M716.875,808.092v.449l.551.319h.776l.549-.319v-.449l-.549-.316h-.776Z" transform="translate(-716.875 -807.777)" fill="#428aa8"/>
      </g>
      <g id="Grupo_176660" data-name="Grupo 176660" transform="translate(8.144 4.678)">
        <path id="Trazado_604552" data-name="Trazado 604552" d="M716.465,809.948v.419l.55.315h.776l.55-.315v-.419Z" transform="translate(-716.465 -809.18)" fill="#2d5a78"/>
        <path id="Trazado_604553" data-name="Trazado 604553" d="M716.465,809.588v.453l.55.316h.776l.55-.316v-.453l-.55-.315h-.776Z" transform="translate(-716.465 -809.272)" fill="#428aa8"/>
      </g>
      <g id="Grupo_176661" data-name="Grupo 176661" transform="translate(11.099 4.414)">
        <path id="Trazado_604554" data-name="Trazado 604554" d="M719.063,809.716v.417l.551.315h.778l.549-.315v-.417Z" transform="translate(-719.063 -808.947)" fill="#2d5a78"/>
        <path id="Trazado_604555" data-name="Trazado 604555" d="M719.063,809.356v.453l.551.313h.778l.549-.313v-.453l-.549-.315h-.778Z" transform="translate(-719.063 -809.04)" fill="#428aa8"/>
      </g>
      <g id="Grupo_176662" data-name="Grupo 176662" transform="translate(7.641 6.41)">
        <path id="Trazado_604556" data-name="Trazado 604556" d="M716.023,811.47v.419l.549.313h.78l.549-.313v-.419Z" transform="translate(-716.023 -810.702)" fill="#2d5a78"/>
        <path id="Trazado_604557" data-name="Trazado 604557" d="M716.023,811.116v.447l.549.314h.78l.549-.314v-.447l-.549-.321h-.78Z" transform="translate(-716.023 -810.795)" fill="#428aa8"/>
      </g>
    </g>
    <g id="Grupo_176664" data-name="Grupo 176664" transform="translate(6.555 2.166)">
      <path id="Trazado_604558" data-name="Trazado 604558" d="M709.627,793.116v.419l2.1,1.22h2.986l2.11-1.22v-.419Z" transform="translate(-709.627 -790.176)" fill="#2d5a78"/>
      <path id="Trazado_604559" data-name="Trazado 604559" d="M711.732,790.532l-2.1,1.22v1.721l2.1,1.219h2.986l2.11-1.219v-1.721l-2.11-1.22Z" transform="translate(-709.627 -790.532)" fill="#428aa8"/>
    </g>
    <g id="Grupo_176688" data-name="Grupo 176688" transform="translate(11.195 4.846)">
      <g id="Grupo_176665" data-name="Grupo 176665" transform="translate(8.61 2.973)">
        <path id="Trazado_604560" data-name="Trazado 604560" d="M721.275,796.175v.421l.551.313h.776l.551-.313v-.421Z" transform="translate(-721.275 -795.408)" fill="#2d5a78"/>
        <path id="Trazado_604561" data-name="Trazado 604561" d="M721.275,795.822v.445l.551.316h.776l.551-.316v-.445l-.551-.321h-.776Z" transform="translate(-721.275 -795.501)" fill="#428aa8"/>
      </g>
      <g id="Grupo_176666" data-name="Grupo 176666" transform="translate(5.655 3.242)">
        <path id="Trazado_604562" data-name="Trazado 604562" d="M718.677,796.408v.419l.549.314h.782l.547-.314v-.419Z" transform="translate(-718.677 -795.645)" fill="#2d5a78"/>
        <path id="Trazado_604563" data-name="Trazado 604563" d="M718.677,796.053v.447l.549.315h.782l.547-.315v-.447l-.547-.316h-.782Z" transform="translate(-718.677 -795.738)" fill="#428aa8"/>
      </g>
      <g id="Grupo_176667" data-name="Grupo 176667" transform="translate(6.037 1.489)">
        <path id="Trazado_604564" data-name="Trazado 604564" d="M719.013,794.867v.419l.549.319h.776l.549-.319v-.419Z" transform="translate(-719.013 -794.104)" fill="#2d5a78"/>
        <path id="Trazado_604565" data-name="Trazado 604565" d="M719.013,794.512v.447l.549.321h.776l.549-.321v-.447l-.549-.316h-.776Z" transform="translate(-719.013 -794.197)" fill="#428aa8"/>
      </g>
      <g id="Grupo_176668" data-name="Grupo 176668" transform="translate(3.08 1.753)">
        <path id="Trazado_604566" data-name="Trazado 604566" d="M716.413,795.1v.415l.55.319h.778l.549-.319V795.1Z" transform="translate(-716.413 -794.336)" fill="#2d5a78"/>
        <path id="Trazado_604567" data-name="Trazado 604567" d="M716.413,794.744v.451l.55.317h.778l.549-.317v-.451l-.549-.315h-.778Z" transform="translate(-716.413 -794.429)" fill="#428aa8"/>
      </g>
      <g id="Grupo_176669" data-name="Grupo 176669" transform="translate(2.577 3.485)">
        <path id="Trazado_604568" data-name="Trazado 604568" d="M715.971,796.625v.419l.547.316h.78l.55-.316v-.419Z" transform="translate(-715.971 -795.859)" fill="#2d5a78"/>
        <path id="Trazado_604569" data-name="Trazado 604569" d="M715.971,796.27v.448l.547.317h.78l.55-.317v-.448l-.55-.319h-.78Z" transform="translate(-715.971 -795.951)" fill="#428aa8"/>
      </g>
      <g id="Grupo_176670" data-name="Grupo 176670" transform="translate(0 2.001)">
        <path id="Trazado_604570" data-name="Trazado 604570" d="M713.706,795.316v.419l.551.315h.78l.551-.315v-.419Z" transform="translate(-713.706 -794.555)" fill="#2d5a78"/>
        <path id="Trazado_604571" data-name="Trazado 604571" d="M713.706,794.961v.447l.551.321h.78l.551-.321v-.447l-.551-.314h-.78Z" transform="translate(-713.706 -794.647)" fill="#428aa8"/>
      </g>
      <g id="Grupo_176671" data-name="Grupo 176671" transform="translate(3.46)">
        <path id="Trazado_604572" data-name="Trazado 604572" d="M716.747,793.562v.419l.551.318h.774l.55-.318v-.419Z" transform="translate(-716.747 -792.795)" fill="#2d5a78"/>
        <path id="Trazado_604573" data-name="Trazado 604573" d="M716.747,793.207v.447l.551.317h.774l.55-.317,0-.447-.552-.319H717.3Z" transform="translate(-716.747 -792.888)" fill="#428aa8"/>
      </g>
      <g id="Grupo_176672" data-name="Grupo 176672" transform="translate(8.148 4.678)">
        <path id="Trazado_604574" data-name="Trazado 604574" d="M720.868,797.675v.413l.549.319h.778l.55-.319v-.413Z" transform="translate(-720.868 -796.907)" fill="#2d5a78"/>
        <path id="Trazado_604575" data-name="Trazado 604575" d="M720.868,797.317v.451l.549.315h.778l.55-.315v-.451l-.55-.317h-.778Z" transform="translate(-720.868 -797)" fill="#428aa8"/>
      </g>
      <g id="Grupo_176673" data-name="Grupo 176673" transform="translate(5.154 4.972)">
        <path id="Trazado_604576" data-name="Trazado 604576" d="M718.236,797.934v.413l.545.316h.782l.549-.316v-.413Z" transform="translate(-718.236 -797.166)" fill="#2d5a78"/>
        <path id="Trazado_604577" data-name="Trazado 604577" d="M718.236,797.576v.451l.545.315h.782l.549-.315v-.451l-.549-.317h-.782Z" transform="translate(-718.236 -797.259)" fill="#428aa8"/>
      </g>
      <g id="Grupo_176674" data-name="Grupo 176674" transform="translate(7.643 6.41)">
        <path id="Trazado_604578" data-name="Trazado 604578" d="M720.424,799.2v.419l.551.315h.776l.55-.315V799.2Z" transform="translate(-720.424 -798.43)" fill="#2d5a78"/>
        <path id="Trazado_604579" data-name="Trazado 604579" d="M720.424,798.838v.451l.551.317h.776l.55-.317v-.451l-.55-.315h-.776Z" transform="translate(-720.424 -798.522)" fill="#428aa8"/>
      </g>
      <g id="Grupo_176675" data-name="Grupo 176675" transform="translate(11.103 4.414)">
        <path id="Trazado_604580" data-name="Trazado 604580" d="M723.466,797.438v.419l.549.315h.778l.547-.315v-.419Z" transform="translate(-723.466 -796.676)" fill="#2d5a78"/>
        <path id="Trazado_604581" data-name="Trazado 604581" d="M723.466,797.083v.447l.549.321h.778l.547-.321v-.447l-.547-.315h-.778Z" transform="translate(-723.466 -796.768)" fill="#428aa8"/>
      </g>
      <g id="Grupo_176676" data-name="Grupo 176676" transform="translate(10.491 6.03)">
        <path id="Trazado_604582" data-name="Trazado 604582" d="M722.928,798.86v.417l.547.319h.78l.547-.319v-.417Z" transform="translate(-722.928 -798.096)" fill="#2d5a78"/>
        <path id="Trazado_604583" data-name="Trazado 604583" d="M722.928,798.509v.444l.547.323h.78l.547-.323v-.447l-.547-.317h-.78Z" transform="translate(-722.928 -798.188)" fill="#428aa8"/>
      </g>
      <g id="Grupo_176677" data-name="Grupo 176677" transform="translate(9.987 7.761)">
        <path id="Trazado_604584" data-name="Trazado 604584" d="M722.484,800.386v.417l.549.317h.778l.551-.317v-.417Z" transform="translate(-722.484 -799.617)" fill="#2d5a78"/>
        <path id="Trazado_604585" data-name="Trazado 604585" d="M722.484,800.026v.453l.549.314h.778l.551-.314v-.453l-.551-.316h-.778Z" transform="translate(-722.484 -799.71)" fill="#428aa8"/>
      </g>
      <g id="Grupo_176678" data-name="Grupo 176678" transform="translate(13.447 5.766)">
        <path id="Trazado_604586" data-name="Trazado 604586" d="M725.526,798.628v.417l.547.319h.78l.551-.319v-.417Z" transform="translate(-725.526 -797.864)" fill="#2d5a78"/>
        <path id="Trazado_604587" data-name="Trazado 604587" d="M725.526,798.271v.449l.547.319h.78l.551-.319v-.449l-.551-.315h-.78Z" transform="translate(-725.526 -797.956)" fill="#428aa8"/>
      </g>
      <g id="Grupo_176679" data-name="Grupo 176679" transform="translate(12.766 7.343)">
        <path id="Trazado_604588" data-name="Trazado 604588" d="M724.928,800.018v.419l.551.314h.778l.551-.314v-.419Z" transform="translate(-724.928 -799.25)" fill="#2d5a78"/>
        <path id="Trazado_604589" data-name="Trazado 604589" d="M724.928,799.664v.447l.551.316h.778l.551-.316v-.447l-.551-.321h-.778Z" transform="translate(-724.928 -799.342)" fill="#428aa8"/>
      </g>
      <g id="Grupo_176680" data-name="Grupo 176680" transform="translate(15.722 7.079)">
        <path id="Trazado_604590" data-name="Trazado 604590" d="M727.526,799.784v.419l.55.315h.776l.551-.315v-.419Z" transform="translate(-727.526 -799.018)" fill="#2d5a78"/>
        <path id="Trazado_604591" data-name="Trazado 604591" d="M727.526,799.426v.451l.55.317h.776l.551-.317v-.451l-.551-.315h-.776Z" transform="translate(-727.526 -799.111)" fill="#428aa8"/>
      </g>
      <g id="Grupo_176681" data-name="Grupo 176681" transform="translate(12.264 9.075)">
        <path id="Trazado_604592" data-name="Trazado 604592" d="M724.486,801.54v.417l.549.315h.776l.55-.315v-.417Z" transform="translate(-724.486 -800.772)" fill="#2d5a78"/>
        <path id="Trazado_604593" data-name="Trazado 604593" d="M724.486,801.184v.449l.549.315h.776l.55-.315v-.449l-.55-.319h-.776Z" transform="translate(-724.486 -800.865)" fill="#428aa8"/>
      </g>
      <g id="Grupo_176682" data-name="Grupo 176682" transform="translate(15.043 8.662)">
        <path id="Trazado_604594" data-name="Trazado 604594" d="M726.929,801.172v.419l.551.315h.776l.551-.315v-.419Z" transform="translate(-726.929 -800.41)" fill="#2d5a78"/>
        <path id="Trazado_604595" data-name="Trazado 604595" d="M726.929,800.817v.447l.551.316h.776l.551-.316v-.447l-.551-.315h-.776Z" transform="translate(-726.929 -800.502)" fill="#428aa8"/>
      </g>
      <g id="Grupo_176683" data-name="Grupo 176683" transform="translate(17.999 8.392)">
        <path id="Trazado_604596" data-name="Trazado 604596" d="M729.527,800.939v.419l.549.315h.778l.551-.315v-.419Z" transform="translate(-729.527 -800.172)" fill="#2d5a78"/>
        <path id="Trazado_604597" data-name="Trazado 604597" d="M729.527,800.584v.447l.549.321h.778l.551-.321v-.447l-.551-.319h-.778Z" transform="translate(-729.527 -800.265)" fill="#428aa8"/>
      </g>
      <g id="Grupo_176684" data-name="Grupo 176684" transform="translate(14.539 10.394)">
        <path id="Trazado_604598" data-name="Trazado 604598" d="M726.486,802.693v.419l.552.315h.776l.551-.315v-.419Z" transform="translate(-726.486 -801.933)" fill="#2d5a78"/>
        <path id="Trazado_604599" data-name="Trazado 604599" d="M726.486,802.338v.447l.552.321h.776l.551-.321v-.447l-.551-.313h-.776Z" transform="translate(-726.486 -802.025)" fill="#428aa8"/>
      </g>
      <g id="Grupo_176685" data-name="Grupo 176685" transform="translate(17.232 9.924)">
        <path id="Trazado_604600" data-name="Trazado 604600" d="M728.854,802.282v.419l.55.319h.78l.547-.319v-.419Z" transform="translate(-728.854 -801.519)" fill="#2d5a78"/>
        <path id="Trazado_604601" data-name="Trazado 604601" d="M728.854,801.93v.444l.55.321h.78l.547-.321v-.444l-.547-.319h-.78Z" transform="translate(-728.854 -801.611)" fill="#428aa8"/>
      </g>
      <g id="Grupo_176686" data-name="Grupo 176686" transform="translate(20.189 9.66)">
        <path id="Trazado_604602" data-name="Trazado 604602" d="M731.453,802.05v.419l.549.319h.776l.55-.319v-.419Z" transform="translate(-731.453 -801.287)" fill="#2d5a78"/>
        <path id="Trazado_604603" data-name="Trazado 604603" d="M731.453,801.695v.447l.549.321h.776l.55-.321v-.447l-.55-.315H732Z" transform="translate(-731.453 -801.379)" fill="#428aa8"/>
      </g>
      <g id="Grupo_176687" data-name="Grupo 176687" transform="translate(16.731 11.656)">
        <path id="Trazado_604604" data-name="Trazado 604604" d="M728.413,803.807v.415l.549.319h.778l.549-.319v-.415Z" transform="translate(-728.413 -803.041)" fill="#2d5a78"/>
        <path id="Trazado_604605" data-name="Trazado 604605" d="M728.413,803.449v.451l.549.317h.778l.549-.317v-.451l-.549-.315h-.778Z" transform="translate(-728.413 -803.134)" fill="#428aa8"/>
      </g>
    </g>
  </g>
  <g id="Grupo_176693" data-name="Grupo 176693" transform="translate(11.399 48.036)">
    <path id="Trazado_604606" data-name="Trazado 604606" d="M735.864,861.526l-5.1-2.946L717.844,856.5,688.016,839.28v-2.793l2.992-1.728h3.785l-3.927-2.263v-2.789l2.986-1.726h3.785l-4.483-2.588V822.6l2.988-1.722h3.911l4.038,2.332v-2.716l2.992-1.728H711l21.671,12.512-4.034-3.863.711-2.613,3.2-1.344,3.73.336,11.5,9.352-.969,6.549,3.338,7.05,5.666,3.271Z" transform="translate(-688.016 -817.089)" opacity="0.3"/>
    <g id="Grupo_176690" data-name="Grupo 176690" transform="translate(41.325 7.01)">
      <path id="Trazado_604607" data-name="Trazado 604607" d="M727.643,825.477l-3.3.814v.572l6.129,5.873v.533l10.683,6.167.94-6.381v-.572Z" transform="translate(-724.343 -823.176)" fill="#2d5a78"/>
      <path id="Trazado_604608" data-name="Trazado 604608" d="M741.155,839.147l.94-6.385-11.069-9-3.384-.3-2.77,1.164-.53,1.952,6.36,6.1-.231.312Z" transform="translate(-724.343 -823.454)" fill="#428aa8"/>
    </g>
    <g id="Grupo_176691" data-name="Grupo 176691" transform="translate(0.631)">
      <path id="Trazado_604609" data-name="Trazado 604609" d="M732.565,824.023l-3.3.814v2.3l6.36,6.1-.231.312L710.75,819.32h-3.573l-2.527,1.22v2.3l19.388,11.193v.405l-.5.287h-.7l-23.028-13.3h-3.575l-2.527,1.214v2.307l23.034,13.3v.405l-.5.285h-.7l-18.02-10.405-3.575,0-2.527,1.214v2.306l18.021,10.405v.405l-.5.285h-.7l-13.577-7.84H691.1l-2.529,1.22v2.3l29.511,17.039,12.812,2.028,18.689-10.79-3.506-7.4.94-6.385v-2.3Z" transform="translate(-688.571 -817.013)" fill="#0a0808"/>
      <path id="Trazado_604610" data-name="Trazado 604610" d="M732.565,821.994l-2.77,1.168-.529,1.954,6.36,6.094-.231.31L710.75,817.292l-3.573,0-2.527,1.459v2.065l19.388,11.193v.405l-.5.285h-.7L699.81,819.4h-3.575l-2.527,1.463v2.059l23.034,13.3v.405l-.5.285h-.7l-18.02-10.405h-3.575l-2.527,1.459v2.063l18.021,10.405v.405l-.5.285h-.7l-13.577-7.836H691.1l-2.529,1.459v2.063l29.511,17.041,12.812,2.021,8.645-3.73,10.044-7.058-3.506-7.4.94-6.379L735.948,822.3Z" transform="translate(-688.571 -817.292)" fill="#574943"/>
    </g>
    <g id="Grupo_176692" data-name="Grupo 176692" transform="translate(42.954 27.794)">
      <path id="Trazado_604611" data-name="Trazado 604611" d="M730.669,856.338l1.594-3.231-6.488-1.9v2.309Z" transform="translate(-725.775 -840.419)" fill="#377691"/>
      <path id="Trazado_604612" data-name="Trazado 604612" d="M730.077,857.3l18.681-10.788V844.2l-9.505,3.984-9.176,6.806Z" transform="translate(-725.183 -841.383)" fill="#2d5a78"/>
      <path id="Trazado_604613" data-name="Trazado 604613" d="M730.669,855.335l18.681-10.789-4.886-2.822-18.689,10.788Z" transform="translate(-725.775 -841.724)" fill="#428aa8"/>
    </g>
  </g>
</svg>
