<svg id="Grupo_176606" data-name="Grupo 176606" xmlns="http://www.w3.org/2000/svg" width="107.904" height="107.906" viewBox="0 0 107.904 107.906">
  <path id="Trazado_604418" data-name="Trazado 604418" d="M680.264,1303.469v-27.526L694.03,1252.1l23.835-13.764H745.4l23.839,13.764,13.768,23.839v27.53l-13.768,23.841L745.4,1341.076H717.865L694.03,1327.31Z" transform="translate(-677.685 -1235.755)" fill="#f4efe9"/>
  <path id="Trazado_604419" data-name="Trazado 604419" d="M678,1275.558v28.917l14.451,25.039,25.042,14.459h28.92l25.032-14.459,14.46-25.039v-28.917l-14.46-25.04-25.032-14.452H717.49l-25.042,14.452Zm5.166,1.387,13.072-22.643,22.638-13.07h26.149l22.638,13.07,13.072,22.638v26.149l-13.072,22.644-22.638,13.07H718.873l-22.638-13.07-13.072-22.644Z" transform="translate(-677.997 -1236.067)" fill="#fdb053"/>
  <g id="Grupo_176605" data-name="Grupo 176605" transform="translate(20.563 25.652)">
    <path id="Trazado_604420" data-name="Trazado 604420" d="M715.638,1259.951c1.815.388,2.569,2.211,2.858,3.264.974,3.559-.2,9.38-4.288,13.154a59.292,59.292,0,0,1-5.7,4.567c-1.315-1.505-2.482-2.568-3.578-2.568a1.564,1.564,0,0,0-.891.328c-.342-4.36-1.032-9.315-1.417-11.916C705.5,1264.2,712.021,1259.174,715.638,1259.951Z" transform="translate(-695.171 -1258.444)" fill="none"/>
    <path id="Trazado_604421" data-name="Trazado 604421" d="M745.718,1287.539a30.958,30.958,0,0,0-4.909-2.274c3.25-2.653,8.376-6.135,11.435-5.482,1.814.389,2.569,2.212,2.857,3.264.811,2.963.129,7.49-2.48,11.1A17.732,17.732,0,0,0,745.718,1287.539Z" transform="translate(-689.917 -1255.716)" fill="none"/>
    <path id="Trazado_604422" data-name="Trazado 604422" d="M714.967,1276.541c4.09-3.774,5.261-9.594,4.288-13.154-.289-1.052-1.042-2.876-2.858-3.264-3.616-.777-10.138,4.249-13.012,6.829.386,2.6,1.075,7.556,1.417,11.916-1.948,1.364-3.629,6.3-6.807,1.115-3.65-5.957,5.11-14.85,5.11-14.85l.024.146c2.775-2.382,9.305-7.466,13.568-6.554,1.893.4,3.291,1.927,3.936,4.284,1.112,4.066-.143,10.379-4.7,14.583a60.7,60.7,0,0,1-5.739,4.611c-.317-.383-.626-.75-.927-1.094A59.292,59.292,0,0,0,714.967,1276.541Z" transform="translate(-695.93 -1258.617)" fill="#0081c8"/>
    <path id="Trazado_604423" data-name="Trazado 604423" d="M757.939,1299.365a83.224,83.224,0,0,1-13.751,9.76c-.08.16-.155.323-.239.482,0,0-14.62,10.751-30.476,4.043-.669-.282-1.339-.593-2.011-.94-16.609-8.579-20.441-42.891-8.213-48.366,0,0-8.761,8.894-5.11,14.85,3.178,5.186,4.86.249,6.807-1.115a1.564,1.564,0,0,1,.891-.328c1.1,0,2.263,1.063,3.578,2.568.3.345.61.711.927,1.094a57.957,57.957,0,0,0,4.406,4.992,14.947,14.947,0,0,0,1.465,1.224c4.516,3.333,13.757,6.6,27.723.485.22-.2.728-.668,1.447-1.276,2.9-2.459,9.177-7.228,13.317-6.341,1.894.406,3.291,1.927,3.937,4.285.977,3.572.124,8.879-3.186,12.966A15.127,15.127,0,0,1,757.939,1299.365Zm-51.611-18.133c-.964-.447-2.455.81-3.272,1.155a4.029,4.029,0,0,1-4.187-.366c-.428-.332-1-.775-1.432-.451a1.088,1.088,0,0,0-.275.952,40.457,40.457,0,0,0,2.97,13.463,8.313,8.313,0,0,0,1.636,2.776,3.263,3.263,0,0,0,2.932,1.024,1,1,0,0,0,.756-.53,1.1,1.1,0,0,0,0-.631c-.488-2.243-2.635-3.955-2.75-6.249-.03-.572.231-1.3.8-1.31.377-.009.719.316,1.091.25.615-.11.563-.99.519-1.613C705,1287.948,708.746,1282.352,706.327,1281.231Zm54.929,3.928c-.288-1.052-1.042-2.875-2.857-3.264-3.059-.653-8.185,2.829-11.435,5.482-.679.554-1.274,1.07-1.754,1.506.107.394.229.877.355,1.436a16.47,16.47,0,0,1-2.948.928c-4.752.807-9.531,2.072-14.347,1.918s-9.759-1.469-13.4-4.624c-2.378-2.059-3.775-5.135-5.787-7.483-.926-1.082-1.432-1.552-1.287-.158.158,1.514.689,2.7.251,4.264-.4,1.446-1.33,2.729-1.564,4.211-.306,1.928.6,3.82,1.478,5.563a2.19,2.19,0,0,1-2.431-.593,9.107,9.107,0,0,0-2.008-1.755c1.1,3.123,4.9,4.252,7.145,6.685.379.411.568,1.279.013,1.348-.408.052-.834-.5-1.151-.238-.15.786.805,1.452.7,2.245a1.2,1.2,0,0,1-1.149.913,3.134,3.134,0,0,1-1.515-.417,19.824,19.824,0,0,1-4-2.579c-.377.25-.228.832-.018,1.231,2.073,3.961,4.561,7.385,8.307,9.825a22.514,22.514,0,0,0,9.143,3.217c4.826.435,8.618-.452,12.86-1.332,3.527-.731,7.429-2.854,10.574-4.859q.427-.933.752-1.888c-.019.058-.04.115-.059.172a77.335,77.335,0,0,0,11.848-8.6,13.739,13.739,0,0,0,1.807-2.053C761.384,1292.649,762.067,1288.123,761.256,1285.16Z" transform="translate(-696.073 -1257.829)" fill="#c7e7f9"/>
    <path id="Trazado_604424" data-name="Trazado 604424" d="M740,1289.418l-.034-.213Z" transform="translate(-690.033 -1254.408)" fill="#e1f2f9"/>
    <path id="Trazado_604425" data-name="Trazado 604425" d="M740.314,1292.172c-.007-.094-.015-.188-.022-.281C740.3,1291.984,740.307,1292.078,740.314,1292.172Z" transform="translate(-689.988 -1254.039)" fill="#e1f2f9"/>
    <path id="Trazado_604426" data-name="Trazado 604426" d="M740.357,1292.965c0-.093-.007-.188-.013-.281C740.35,1292.777,740.353,1292.872,740.357,1292.965Z" transform="translate(-689.981 -1253.93)" fill="#e1f2f9"/>
    <path id="Trazado_604427" data-name="Trazado 604427" d="M740.365,1295.29q.007-.167.01-.335Q740.372,1295.122,740.365,1295.29Z" transform="translate(-689.978 -1253.617)" fill="#e1f2f9"/>
    <path id="Trazado_604428" data-name="Trazado 604428" d="M740.258,1291.493c-.007-.075-.014-.152-.021-.226C740.245,1291.341,740.252,1291.418,740.258,1291.493Z" transform="translate(-689.996 -1254.125)" fill="#e1f2f9"/>
    <path id="Trazado_604429" data-name="Trazado 604429" d="M740.38,1293.7c0-.1,0-.208-.008-.313C740.375,1293.489,740.378,1293.592,740.38,1293.7Z" transform="translate(-689.977 -1253.833)" fill="#e1f2f9"/>
    <path id="Trazado_604430" data-name="Trazado 604430" d="M740.182,1290.74c-.009-.084-.019-.166-.03-.248C740.162,1290.574,740.172,1290.656,740.182,1290.74Z" transform="translate(-690.008 -1254.231)" fill="#e1f2f9"/>
    <path id="Trazado_604431" data-name="Trazado 604431" d="M739.8,1288.232c-.012-.064-.025-.125-.036-.189C739.773,1288.107,739.786,1288.168,739.8,1288.232Z" transform="translate(-690.061 -1254.568)" fill="#e1f2f9"/>
    <path id="Trazado_604432" data-name="Trazado 604432" d="M740.325,1296.064c.008-.122.015-.244.022-.365C740.34,1295.821,740.333,1295.943,740.325,1296.064Z" transform="translate(-689.984 -1253.515)" fill="#e1f2f9"/>
    <path id="Trazado_604433" data-name="Trazado 604433" d="M739.7,1287.758c-.014-.065-.027-.131-.041-.195Q739.683,1287.659,739.7,1287.758Z" transform="translate(-690.075 -1254.634)" fill="#e1f2f9"/>
    <path id="Trazado_604434" data-name="Trazado 604434" d="M739.914,1288.871c-.013-.068-.024-.138-.035-.2C739.89,1288.733,739.9,1288.8,739.914,1288.871Z" transform="translate(-690.045 -1254.482)" fill="#e1f2f9"/>
    <path id="Trazado_604435" data-name="Trazado 604435" d="M740.106,1290.123c-.01-.073-.019-.146-.03-.217C740.086,1289.978,740.1,1290.05,740.106,1290.123Z" transform="translate(-690.018 -1254.312)" fill="#e1f2f9"/>
    <path id="Trazado_604436" data-name="Trazado 604436" d="M740.167,1297.649c.015-.108.027-.217.04-.325C740.194,1297.432,740.182,1297.541,740.167,1297.649Z" transform="translate(-690.006 -1253.291)" fill="#e1f2f9"/>
    <path id="Trazado_604437" data-name="Trazado 604437" d="M739.655,1300.274c.03-.115.06-.229.088-.342C739.715,1300.046,739.685,1300.159,739.655,1300.274Z" transform="translate(-690.076 -1252.932)" fill="#e1f2f9"/>
    <path id="Trazado_604438" data-name="Trazado 604438" d="M739.448,1301.013c.035-.116.067-.232.1-.348C739.515,1300.781,739.483,1300.9,739.448,1301.013Z" transform="translate(-690.105 -1252.831)" fill="#e1f2f9"/>
    <path id="Trazado_604439" data-name="Trazado 604439" d="M740.384,1294.141c0,.12,0,.242,0,.364C740.384,1294.383,740.384,1294.262,740.384,1294.141Z" transform="translate(-689.976 -1253.729)" fill="#e1f2f9"/>
    <path id="Trazado_604440" data-name="Trazado 604440" d="M740.02,1298.6c.021-.117.041-.234.06-.351C740.061,1298.365,740.041,1298.482,740.02,1298.6Z" transform="translate(-690.026 -1253.164)" fill="#e1f2f9"/>
    <path id="Trazado_604441" data-name="Trazado 604441" d="M739.879,1299.332q.036-.172.068-.345Q739.915,1299.159,739.879,1299.332Z" transform="translate(-690.045 -1253.062)" fill="#e1f2f9"/>
    <path id="Trazado_604442" data-name="Trazado 604442" d="M740.251,1296.931c.011-.116.024-.232.034-.348C740.275,1296.7,740.262,1296.815,740.251,1296.931Z" transform="translate(-689.994 -1253.393)" fill="#e1f2f9"/>
    <path id="Trazado_604443" data-name="Trazado 604443" d="M744.783,1288.86c.014.064.027.13.041.195q.036.172.072.352c.011.064.024.125.036.189.033.168.065.343.1.52.011.067.023.136.035.2.023.134.046.27.068.408l.034.213c.03.191.058.385.086.585.01.072.019.144.03.217.019.148.039.3.057.449.01.082.021.164.03.248.024.208.047.419.068.634.007.074.014.151.021.226.015.161.028.321.041.484.007.093.015.187.022.281.014.206.027.412.038.621.006.093.009.188.013.281.008.171.015.343.019.515,0,.1.006.208.008.313,0,.182,0,.364.006.548,0,.121,0,.242,0,.364,0,.187,0,.373-.01.562q0,.167-.01.334c-.007.169-.015.341-.024.512-.007.122-.014.243-.022.365-.015.213-.031.425-.05.64-.01.116-.023.232-.034.348q-.025.248-.056.495c-.013.108-.025.218-.04.325-.032.241-.068.484-.107.726-.019.117-.04.234-.06.352-.029.164-.059.326-.092.489q-.033.172-.068.344-.077.365-.167.73c-.027.114-.058.227-.088.342-.043.164-.088.328-.134.491-.034.116-.066.232-.1.348-.074.243-.152.488-.235.73q-.326.954-.752,1.888c-3.145,2-7.047,4.127-10.574,4.859-4.242.881-8.035,1.767-12.86,1.332a22.514,22.514,0,0,1-9.143-3.217c-3.746-2.44-6.234-5.864-8.307-9.825-.209-.4-.358-.981.018-1.231a19.834,19.834,0,0,0,4,2.579,3.132,3.132,0,0,0,1.515.417,1.2,1.2,0,0,0,1.149-.913c.109-.793-.846-1.458-.7-2.245.317-.264.743.29,1.151.238.555-.069.366-.937-.013-1.348-2.243-2.432-6.049-3.562-7.145-6.685a9.1,9.1,0,0,1,2.008,1.755,2.19,2.19,0,0,0,2.431.593c-.879-1.743-1.784-3.635-1.478-5.563.234-1.482,1.16-2.765,1.564-4.211.438-1.564-.093-2.75-.251-4.264-.146-1.394.361-.924,1.287.158,2.012,2.348,3.409,5.424,5.787,7.483,3.643,3.156,8.585,4.472,13.4,4.624s9.6-1.112,14.347-1.918a16.47,16.47,0,0,0,2.948-.928h0C744.719,1288.563,744.751,1288.71,744.783,1288.86Z" transform="translate(-695.195 -1255.931)" fill="#d7f0fa"/>
    <path id="Trazado_604444" data-name="Trazado 604444" d="M704.99,1287.67c.044.623.1,1.5-.519,1.613-.372.066-.714-.259-1.091-.25-.573.014-.834.738-.8,1.31.115,2.293,2.261,4.005,2.75,6.249a1.1,1.1,0,0,1,0,.631,1,1,0,0,1-.756.53,3.263,3.263,0,0,1-2.932-1.024,8.313,8.313,0,0,1-1.636-2.776,40.457,40.457,0,0,1-2.97-13.463,1.088,1.088,0,0,1,.275-.952c.435-.324,1,.118,1.432.451a4.029,4.029,0,0,0,4.187.366c.817-.345,2.308-1.6,3.272-1.155C708.615,1280.321,704.866,1285.917,704.99,1287.67Z" transform="translate(-695.942 -1255.798)" fill="#d3ecf8"/>
  </g>
</svg>
