<svg xmlns="http://www.w3.org/2000/svg" xmlns:xlink="http://www.w3.org/1999/xlink" width="1030" height="241.749" viewBox="0 0 1030 241.749">
  <defs>
    <linearGradient id="linear-gradient" x1="-0.043" y1="-0.125" x2="0.664" y2="1.321" gradientUnits="objectBoundingBox">
      <stop offset="0" stop-color="#64f6f0"/>
      <stop offset="0.645" stop-color="#4b31a8"/>
      <stop offset="1" stop-color="#461698"/>
    </linearGradient>
    <clipPath id="clip-path">
      <path id="Rectangle_652" data-name="Rectangle 652" d="M16.22,0H1013.78c8.958,0,16.22,4.006,16.22,8.948V232.64c0,4.942-7.262,8.948-16.22,8.948H16.22C7.262,241.587,0,237.581,0,232.64V8.948C0,4.006,7.262,0,16.22,0Z" fill="url(#linear-gradient)"/>
    </clipPath>
  </defs>
  <g id="Grupo_177545" data-name="Grupo 177545" transform="translate(-285 -1972.802)">
    <g id="Grupo_177484" data-name="Grupo 177484" transform="translate(285 1972.802)">
      <rect id="Rectángulo_34835" data-name="Rectángulo 34835" width="1029.333" height="240.764" rx="18" fill="#fff6df"/>
      <g id="Enmascarar_grupo_45" data-name="Enmascarar grupo 45" transform="translate(0 0.162)" clip-path="url(#clip-path)">
        <path id="Sustracción_2" data-name="Sustracción 2" d="M336.985,647.083c186.111,0,336.984-144.855,336.984-323.542S523.1,0,336.985,0,0,144.855,0,323.542,150.873,647.083,336.985,647.083Z" transform="translate(497.77 783.905) rotate(180)" fill="#fff6df" style="mix-blend-mode: multiply;isolation: isolate"/>
        <path id="Sustracción_6" data-name="Sustracción 6" d="M310.08,0h0a429.412,429.412,0,0,0-104.4,34.55,425.622,425.622,0,0,0-54.019,31.063,420.884,420.884,0,0,0-48.372,38.238A413.622,413.622,0,0,0,61.362,148.5a404.567,404.567,0,0,0-34.694,50.309A395.27,395.27,0,0,0,0,254.011H1.77c1.969-5.023,4.056-10.041,6.2-14.918,5.251-11.918,11.183-23.74,17.63-35.137,6.4-11.315,13.456-22.465,20.97-33.14,7.489-10.642,15.6-21.053,24.1-30.943,8.477-9.866,17.568-19.471,27.02-28.546s19.459-17.806,29.734-25.945c10.313-8.171,21.155-15.955,32.227-23.137,11.114-7.21,22.728-13.984,34.518-20.134,11.87-6.19,24.183-11.885,36.6-16.925,12.53-5.09,25.47-9.638,38.461-13.517,13.106-3.914,26.6-7.246,40.121-9.906l.727-.141V0Z" transform="translate(253.349 253.615) rotate(180)" fill="#7d5f54"/>
        <path id="Trazado_118480" data-name="Trazado 118480" d="M176.263,17.794s57.5,37.259-18.124,99.485-50.767,159.105-44.33,176.7,27.088,60.017,13.323,51.346-18.166-60.878-20.56-37.915,40.971,106.947,78.746,136.886c22.428,17.776,24.1,25.084,21.762,28.09-1.743,2.239-5.563,1.541-8.047-1.208-10.168-11.256-42.981-46.882-42.923-37.786.081,13.05,31.393,43.416,46.661,55.638s26.751,25.128,14.406,27.766S-66.753,370.112,34.211,131.376c0,0,1.948-9.706-5.015-6.283s-12.648,17.026-13.928,6.847S82.907-35.8,176.263,17.794" transform="translate(71.922 388.666) rotate(-133)" fill="#fed2b2"/>
      </g>
    </g>
  </g>
</svg>
