<svg id="Grupo_176736" data-name="Grupo 176736" xmlns="http://www.w3.org/2000/svg" width="107.904" height="107.902" viewBox="0 0 107.904 107.902">
  <g id="Grupo_176728" data-name="Grupo 176728">
    <path id="Trazado_604742" data-name="Trazado 604742" d="M380.921,842.466V814.938L394.686,791.1l23.836-13.763h27.536L469.895,791.1l13.768,23.837v27.532l-13.768,23.843-23.837,13.764H418.522l-23.836-13.764Z" transform="translate(-378.341 -774.753)" fill="#f4efe9"/>
    <path id="Trazado_604743" data-name="Trazado 604743" d="M378.653,814.559v28.915L393.1,868.513l25.04,14.453h28.921L472.1,868.513l14.458-25.039v-28.92L472.1,789.519l-25.034-14.454H418.144L393.1,789.519Zm5.168,1.383L396.892,793.3l22.639-13.07h26.147l22.638,13.07,13.073,22.638v26.148l-13.073,22.643L445.679,877.8H419.531l-22.639-13.072-13.071-22.643Z" transform="translate(-378.653 -775.065)" fill="#fdb053"/>
  </g>
  <g id="Grupo_176735" data-name="Grupo 176735" transform="translate(26.727 15.919)">
    <g id="Grupo_176729" data-name="Grupo 176729" transform="translate(29.872 42.652)">
      <path id="Trazado_604744" data-name="Trazado 604744" d="M443.926,829.96l-3.042-1.758h0c-1.322-.77-3.153-.662-5.175.505a16.142,16.142,0,0,0-7.3,12.65c0,2.384.86,4.043,2.239,4.782h0l2.962,1.709,1-1.73a8.984,8.984,0,0,0,1.106-.542,16.15,16.15,0,0,0,7.3-12.653,9.038,9.038,0,0,0-.083-1.238Z" transform="translate(-428.406 -826.393)" fill="#303033"/>
      <path id="Trazado_604745" data-name="Trazado 604745" d="M445.608,834.422a16.144,16.144,0,0,1-7.3,12.651c-4.034,2.328-7.3.44-7.3-4.218a16.142,16.142,0,0,1,7.3-12.649C442.339,827.876,445.608,829.763,445.608,834.422Z" transform="translate(-428.049 -826.187)" fill="#121214"/>
      <path id="Trazado_604746" data-name="Trazado 604746" d="M449.434,829.524l-4.017-2.323h0c-1.744-1.016-4.16-.872-6.831.667-5.324,3.075-9.641,10.552-9.641,16.7,0,3.152,1.134,5.339,2.955,6.314h0l3.911,2.255,1.316-2.285a11.706,11.706,0,0,0,1.461-.714c5.327-3.076,9.643-10.553,9.643-16.7a11.59,11.59,0,0,0-.11-1.634Z" transform="translate(-428.332 -826.552)" fill="#e31b25"/>
      <path id="Trazado_604747" data-name="Trazado 604747" d="M451.655,835.415c0,6.151-4.317,13.627-9.643,16.7s-9.642.58-9.642-5.567,4.317-13.627,9.642-16.7S451.655,829.264,451.655,835.415Z" transform="translate(-427.861 -826.281)" fill="#9c251f"/>
      <path id="Trazado_604748" data-name="Trazado 604748" d="M449.883,833.649l-3.064-1.776h0c-1.3-.783-3.107-.691-5.11.464a15.8,15.8,0,0,0-7.147,12.379c0,2.33.838,3.949,2.182,4.674h0l3.416,1.966,1.306-2.38c.082-.044.16-.084.243-.133a15.8,15.8,0,0,0,7.147-12.379,8.588,8.588,0,0,0-.043-.87Z" transform="translate(-427.559 -825.891)" fill="#fff"/>
      <path id="Trazado_604749" data-name="Trazado 604749" d="M451.743,838.131a15.8,15.8,0,0,1-7.146,12.38c-3.947,2.276-7.146.432-7.146-4.126a15.792,15.792,0,0,1,7.146-12.379C448.544,831.726,451.743,833.573,451.743,838.131Z" transform="translate(-427.162 -825.661)" fill="#e6e7e8"/>
      <path id="Trazado_604750" data-name="Trazado 604750" d="M445.948,840.3a4.415,4.415,0,0,1-2,3.456c-.8.46-1.491.316-1.808-.284a1.9,1.9,0,0,0,.843-.273,4.42,4.42,0,0,0,1.994-3.457,1.824,1.824,0,0,0-.188-.871C445.475,838.848,445.948,839.375,445.948,840.3Z" transform="translate(-426.516 -824.857)" fill="#bcbec0"/>
      <path id="Trazado_604751" data-name="Trazado 604751" d="M445,839.744a4.42,4.42,0,0,1-1.994,3.457,1.9,1.9,0,0,1-.843.273,1.841,1.841,0,0,1-.19-.865,4.422,4.422,0,0,1,2-3.462.6.6,0,1,1,1.03.6Z" transform="translate(-426.539 -824.857)" fill="#a7a9ac"/>
    </g>
    <g id="Grupo_176730" data-name="Grupo 176730" transform="translate(0 26.87)">
      <path id="Trazado_604752" data-name="Trazado 604752" d="M417.468,814.964l-3.064-1.777h0c-1.3-.784-3.108-.69-5.109.465a15.8,15.8,0,0,0-7.147,12.379c0,2.33.838,3.95,2.181,4.673h0l3.416,1.964,1.307-2.378c.08-.042.16-.085.243-.132a15.8,15.8,0,0,0,7.147-12.379c0-.3-.015-.594-.042-.87Z" transform="translate(-402.147 -812.679)" fill="#fff"/>
      <path id="Trazado_604753" data-name="Trazado 604753" d="M419.329,819.447a15.806,15.806,0,0,1-7.149,12.379c-3.949,2.279-7.145.431-7.145-4.127a15.791,15.791,0,0,1,7.145-12.379C416.126,813.043,419.329,814.889,419.329,819.447Z" transform="translate(-401.75 -812.45)" fill="#e6e7e8"/>
    </g>
    <g id="Grupo_176731" data-name="Grupo 176731" transform="translate(6.245 0.585)">
      <path id="Trazado_604754" data-name="Trazado 604754" d="M408.631,819.212a14.965,14.965,0,0,1,2.1-1.478,10.948,10.948,0,0,1,2.066-.935V803.441c0-4.307,2.652-8.6,4.716-10.834l-2.428.336a10.3,10.3,0,0,0-6.483,8.339c-1.094,6.679,0,17.95,0,17.95Z" transform="translate(-407.572 -789.155)" fill="#a7a9ac"/>
      <path id="Trazado_604755" data-name="Trazado 604755" d="M422.025,789.727c-1.966-.059-2.251-.477-3.751.379l-5.79,3.341,5.782.025,4.2-2.423Z" transform="translate(-406.97 -789.573)" fill="#d1d3d4"/>
      <path id="Trazado_604756" data-name="Trazado 604756" d="M408.664,819.338l-1.027-.593V805.378c0-8.423,4.261-13.739,10.859-13.542l.437,1.325c-6.24-.188-10.269,4.84-10.269,12.808Z" transform="translate(-407.637 -789.262)" fill="#e6e7e8"/>
    </g>
    <g id="Grupo_176732" data-name="Grupo 176732" transform="translate(16.395)">
      <path id="Trazado_604757" data-name="Trazado 604757" d="M416.559,792.1l5.272-3.044a17.745,17.745,0,0,1,8.263,2.632,33.91,33.91,0,0,1,8.262,6.907l-.733,1.362-3.992,2.028L432.353,803s-2.934-5.144-5.4-6.233C418.627,793.1,416.559,792.1,416.559,792.1Z" transform="translate(-416.559 -789.059)" fill="#535359"/>
      <path id="Trazado_604758" data-name="Trazado 604758" d="M435.713,798.806l-5.27,3.044.731-1.361,5.272-3.044Z" transform="translate(-414.649 -787.905)" fill="#121214"/>
      <path id="Trazado_604759" data-name="Trazado 604759" d="M417.292,793.941l-.733-2.206a17.762,17.762,0,0,1,8.262,2.63,33.881,33.881,0,0,1,8.262,6.91l-.73,1.361a30.928,30.928,0,0,0-7.532-6.3A16.214,16.214,0,0,0,417.292,793.941Z" transform="translate(-416.559 -788.691)" fill="#303033"/>
    </g>
    <g id="Grupo_176733" data-name="Grupo 176733" transform="translate(32.897 10.11)">
      <path id="Trazado_604760" data-name="Trazado 604760" d="M442.309,839.815l.041-.024a15.045,15.045,0,0,1,2.1-1.481,10.816,10.816,0,0,1,2.059-.929V824.024c0-8.425-4.264-18.662-10.859-26.078l-4.2,2.422c5.194,7.449,10.276,15.6,10.276,23.569Z" transform="translate(-431.012 -797.946)" fill="#a7a9ac"/>
      <path id="Trazado_604761" data-name="Trazado 604761" d="M442.362,839.522l-1.025-.593V825.562c0-7.971-4.032-17.654-10.272-24.67l.44-.817c6.595,7.416,10.857,17.654,10.857,26.078Z" transform="translate(-431.065 -797.653)" fill="#e6e7e8"/>
    </g>
    <g id="Grupo_176734" data-name="Grupo 176734" transform="translate(0.788 25.541)">
      <path id="Trazado_604762" data-name="Trazado 604762" d="M423.329,814.482l-4.016-2.322h0c-1.745-1.017-4.161-.874-6.831.667-5.325,3.076-9.642,10.553-9.642,16.7,0,3.149,1.135,5.338,2.955,6.311h0L409.7,838.1l1.318-2.283a11.819,11.819,0,0,0,1.46-.718c5.326-3.074,9.642-10.551,9.642-16.7a11.3,11.3,0,0,0-.11-1.636Z" transform="translate(-402.84 -811.511)" fill="#e31b25"/>
      <path id="Trazado_604763" data-name="Trazado 604763" d="M425.55,820.372c0,6.151-4.316,13.629-9.642,16.7s-9.643.581-9.643-5.569,4.319-13.628,9.643-16.7S425.55,814.222,425.55,820.372Z" transform="translate(-402.369 -811.239)" fill="#9c251f"/>
      <path id="Trazado_604764" data-name="Trazado 604764" d="M422.346,817.529l-1.547-.894h0c-1.322-.769-3.152-.662-5.174.506a16.144,16.144,0,0,0-7.3,12.651c0,2.387.86,4.043,2.239,4.782h0l1.458.841Z" transform="translate(-402.086 -810.873)" fill="#303033"/>
      <path id="Trazado_604765" data-name="Trazado 604765" d="M424.222,822.1a16.147,16.147,0,0,1-7.3,12.653c-4.032,2.329-7.3.44-7.3-4.22a16.15,16.15,0,0,1,7.3-12.65C420.953,815.558,424.222,817.446,424.222,822.1Z" transform="translate(-401.908 -810.771)" fill="#121214"/>
      <path id="Trazado_604766" data-name="Trazado 604766" d="M422.242,822.82a12.438,12.438,0,0,1-5.63,9.749c-1.778,1.023-3.362.989-4.389.1a4.267,4.267,0,0,0,3.539-.6,12.436,12.436,0,0,0,5.63-9.747,4.281,4.281,0,0,0-1.238-3.349C421.43,819.431,422.242,820.781,422.242,822.82Z" transform="translate(-401.549 -810.484)" fill="#303033"/>
      <path id="Trazado_604767" data-name="Trazado 604767" d="M421.542,822.347a12.436,12.436,0,0,1-5.63,9.747,2.805,2.805,0,0,1-4.776-2.755,12.446,12.446,0,0,1,5.625-9.746A4.234,4.234,0,0,1,420.3,819,4.282,4.282,0,0,1,421.542,822.347Z" transform="translate(-401.699 -810.505)"/>
    </g>
  </g>
</svg>
