<svg id="Grupo_176748" data-name="Grupo 176748" xmlns="http://www.w3.org/2000/svg" width="107.904" height="107.902" viewBox="0 0 107.904 107.902">
  <g id="Grupo_176737" data-name="Grupo 176737">
    <path id="Trazado_604768" data-name="Trazado 604768" d="M380.921,1072.967v-27.528l13.765-23.841,23.836-13.762h27.536l23.837,13.762,13.768,23.837v27.532l-13.768,23.843-23.837,13.764H418.522l-23.836-13.764Z" transform="translate(-378.341 -1005.253)" fill="#f4efe9"/>
    <path id="Trazado_604769" data-name="Trazado 604769" d="M378.653,1045.059v28.917l14.452,25.039,25.04,14.452h28.921l25.034-14.452,14.458-25.039v-28.921L472.1,1020.019l-25.034-14.454H418.144l-25.04,14.454Zm5.168,1.383,13.071-22.642,22.639-13.069h26.147l22.638,13.069,13.073,22.638v26.149l-13.073,22.641L445.679,1108.3H419.531l-22.639-13.072-13.071-22.641Z" transform="translate(-378.653 -1005.565)" fill="#fdb053"/>
  </g>
  <g id="Grupo_176747" data-name="Grupo 176747" transform="translate(31.898 12.758)">
    <path id="Trazado_604770" data-name="Trazado 604770" d="M426.58,1017.784s4.507,12.536,4.495,14.3-4.479,9.772-6.215,8.952S419.276,1022,419.276,1022Z" transform="translate(-404.962 -1016.642)" fill="#de4a07"/>
    <path id="Trazado_604771" data-name="Trazado 604771" d="M426.212,1041.343s-5.851-17.823-5.308-18.8,4.17-3.207,4.867-2.789,4.6,13.8,4.6,13.8Z" transform="translate(-404.742 -1016.378)" fill="#b53d06"/>
    <g id="Grupo_176746" data-name="Grupo 176746" transform="translate(0 4.329)">
      <g id="Grupo_176740" data-name="Grupo 176740">
        <path id="Trazado_604772" data-name="Trazado 604772" d="M426.121,1040.647V1052.8l-.519-.55-15.484-16.345,1.96-11.891.566-3.43,7.893,1.024L422.41,1028l3.191,10.885Z" transform="translate(-406.222 -1020.586)" fill="#db5e25"/>
        <path id="Trazado_604773" data-name="Trazado 604773" d="M426.592,1050.948v37.09l-16-11.771-.558-5.447-1-9.709-.449-4.391-.96-9.311-.449-4.391-.48-4.651,3.9-4.315Z" transform="translate(-406.693 -1018.733)" fill="#de4a07"/>
        <path id="Trazado_604774" data-name="Trazado 604774" d="M421.422,1047.058l3.143-8.84v12.159Z" transform="translate(-404.666 -1018.159)" fill="#de4a07"/>
        <path id="Trazado_604775" data-name="Trazado 604775" d="M422.173,1028l-10.333-3.98.566-3.43,7.893,1.024Z" transform="translate(-405.985 -1020.586)" fill="#f06728"/>
        <path id="Trazado_604776" data-name="Trazado 604776" d="M422.319,1050.713v4.132l-14.834-8.564-.37-4.346Z" transform="translate(-406.635 -1017.648)" fill="#331f15"/>
        <g id="Grupo_176738" data-name="Grupo 176738" transform="translate(2.246 22.673)">
          <path id="Trazado_604777" data-name="Trazado 604777" d="M413.336,1053.158l-3.444-1.452-1.225-11.19,3.444,1.452Z" transform="translate(-408.668 -1040.516)" fill="#db5e25"/>
          <path id="Trazado_604778" data-name="Trazado 604778" d="M412.894,1049.121l-3.444-1.452-.436-3.987,3.444,1.452Z" transform="translate(-408.62 -1040.081)" fill="#de4a07"/>
        </g>
        <path id="Trazado_604779" data-name="Trazado 604779" d="M422.031,1061.877v4.132l-13.246-7.648-.358-4.339Z" transform="translate(-406.454 -1015.985)" fill="#331f15"/>
        <g id="Grupo_176739" data-name="Grupo 176739" transform="translate(3.615 36.352)">
          <path id="Trazado_604780" data-name="Trazado 604780" d="M414.539,1065.183l-3.444-1.452-1.225-11.19,3.444,1.452Z" transform="translate(-409.871 -1052.541)" fill="#db5e25"/>
          <path id="Trazado_604781" data-name="Trazado 604781" d="M414.1,1061.146l-3.444-1.452-.436-3.987,3.444,1.452Z" transform="translate(-409.823 -1052.105)" fill="#de4a07"/>
        </g>
        <path id="Trazado_604782" data-name="Trazado 604782" d="M426.188,1077.948v5.644l-.519-.38-15.484-11.39-.558-5.447,16.042,11.211Z" transform="translate(-406.289 -1014.286)" fill="#b53d06"/>
      </g>
      <g id="Grupo_176743" data-name="Grupo 176743" transform="translate(19.898 7.472)">
        <path id="Trazado_604783" data-name="Trazado 604783" d="M440.188,1053.481l-12.858-1.27-2.626-.264-.519-.049v-12.155l.519-1.167,3.191-7.2,1.874-4.222,7.893,8.09.565,4.083Z" transform="translate(-424.184 -1027.154)" fill="#db5e25"/>
        <path id="Trazado_604784" data-name="Trazado 604784" d="M444.084,1059.3l-.48,4.1-.449,3.873-.96,8.2-.411,3.555-.039.317-1,8.555-.558,4.8-15.484-6.489-.519-.219v-37.09l.519.049,2.626.264,12.858,1.27Z" transform="translate(-424.184 -1024.161)" fill="#de4a07"/>
        <path id="Trazado_604785" data-name="Trazado 604785" d="M427.327,1050.687l-3.143-12.469v12.159Z" transform="translate(-424.185 -1025.632)" fill="#de4a07"/>
        <path id="Trazado_604786" data-name="Trazado 604786" d="M427.445,1031.375l10.333,7.951-.565-4.083-7.893-8.09Z" transform="translate(-423.736 -1027.154)" fill="#f06728"/>
        <path id="Trazado_604787" data-name="Trazado 604787" d="M427.889,1053.929v4.132l14.834,8.564.37-3.919Z" transform="translate(-423.675 -1023.47)" fill="#331f15"/>
        <g id="Grupo_176741" data-name="Grupo 176741" transform="translate(12.983 33.059)">
          <path id="Trazado_604788" data-name="Trazado 604788" d="M435.6,1065.99l3.444,2.525,1.225-9.776-3.444-2.525Z" transform="translate(-435.598 -1056.215)" fill="#db5e25"/>
          <path id="Trazado_604789" data-name="Trazado 604789" d="M435.944,1062.464l3.444,2.525.436-3.484-3.444-2.524Z" transform="translate(-435.55 -1055.834)" fill="#de4a07"/>
        </g>
        <path id="Trazado_604790" data-name="Trazado 604790" d="M427.983,1065.314v4.132l13.246,7.648.358-3.925Z" transform="translate(-423.662 -1021.904)" fill="#331f15"/>
        <g id="Grupo_176742" data-name="Grupo 176742" transform="translate(11.615 45.157)">
          <path id="Trazado_604791" data-name="Trazado 604791" d="M434.394,1076.625l3.444,2.525,1.225-9.776-3.444-2.525Z" transform="translate(-434.394 -1066.849)" fill="#db5e25"/>
          <path id="Trazado_604792" data-name="Trazado 604792" d="M434.741,1073.1l3.444,2.525.436-3.483-3.444-2.525Z" transform="translate(-434.347 -1066.469)" fill="#de4a07"/>
        </g>
        <path id="Trazado_604793" data-name="Trazado 604793" d="M440.746,1084.1l-.558,4.8-15.484-6.489-.519-.219v-5.644l.519.237Z" transform="translate(-424.184 -1020.358)" fill="#b53d06"/>
      </g>
      <path id="Trazado_604794" data-name="Trazado 604794" d="M424.767,1037.267V1087.9l-.519-.219-.519-.38v-50.631l.519,1.766Z" transform="translate(-404.349 -1018.373)" fill="#b53d06"/>
      <g id="Grupo_176744" data-name="Grupo 176744" transform="translate(15.218 32.842)">
        <path id="Trazado_604795" data-name="Trazado 604795" d="M422.856,1055.433l-1.126-.65v-4.627l1.126.65Z" transform="translate(-419.842 -1049.359)" fill="#331f15"/>
        <path id="Trazado_604796" data-name="Trazado 604796" d="M426.093,1056.591l-3.374-1.948v-3.359l3.374,1.948Z" transform="translate(-419.705 -1049.203)" fill="#331f15"/>
        <path id="Trazado_604797" data-name="Trazado 604797" d="M425.446,1052.934l-2.219-1.281v-.622l2.219,1.281Z" transform="translate(-419.636 -1049.238)" fill="#1c110c"/>
        <path id="Trazado_604798" data-name="Trazado 604798" d="M425.446,1056.433l-2.219-1.281v-.622l2.219,1.281Z" transform="translate(-419.636 -1048.757)" fill="#1c110c"/>
        <path id="Trazado_604799" data-name="Trazado 604799" d="M420.536,1050.825v1.835a1.457,1.457,0,0,0,.656,1.144l.767.443v.633l-1.226-.708a1.459,1.459,0,0,1-.663-1.141v-3.108c0-.417.3-.588.663-.376l1.226.709v.634l-.767-.442C420.831,1050.237,420.536,1050.407,420.536,1050.825Z" transform="translate(-420.07 -1049.455)" fill="#1c110c"/>
        <path id="Trazado_604800" data-name="Trazado 604800" d="M427.6,1056.776v-1.835a1.452,1.452,0,0,0-.658-1.143l-.766-.442v-.634l1.226.708a1.458,1.458,0,0,1,.662,1.142v3.107c0,.419-.295.589-.662.377l-1.226-.708v-.634l.766.441C427.3,1057.365,427.6,1057.2,427.6,1056.776Z" transform="translate(-419.23 -1049.006)" fill="#1c110c"/>
        <path id="Trazado_604801" data-name="Trazado 604801" d="M426.239,1057.386l-.554-.32v-4.627l.554.32Z" transform="translate(-419.297 -1049.045)" fill="#1c110c"/>
      </g>
      <g id="Grupo_176745" data-name="Grupo 176745" transform="translate(15.218 45.73)">
        <path id="Trazado_604802" data-name="Trazado 604802" d="M422.856,1066.762l-1.126-.65v-4.627l1.126.65Z" transform="translate(-419.842 -1060.688)" fill="#331f15"/>
        <path id="Trazado_604803" data-name="Trazado 604803" d="M426.093,1067.92l-3.374-1.948v-3.359l3.374,1.948Z" transform="translate(-419.705 -1060.533)" fill="#331f15"/>
        <path id="Trazado_604804" data-name="Trazado 604804" d="M425.446,1064.263l-2.219-1.281v-.622l2.219,1.281Z" transform="translate(-419.636 -1060.568)" fill="#1c110c"/>
        <path id="Trazado_604805" data-name="Trazado 604805" d="M425.446,1067.762l-2.219-1.281v-.622l2.219,1.281Z" transform="translate(-419.636 -1060.086)" fill="#1c110c"/>
        <path id="Trazado_604806" data-name="Trazado 604806" d="M420.536,1062.155v1.834a1.458,1.458,0,0,0,.656,1.145l.767.442v.634l-1.226-.709a1.456,1.456,0,0,1-.663-1.141v-3.108c0-.417.3-.588.663-.375l1.226.708v.634l-.767-.443C420.831,1061.565,420.536,1061.736,420.536,1062.155Z" transform="translate(-420.07 -1060.784)" fill="#1c110c"/>
        <path id="Trazado_604807" data-name="Trazado 604807" d="M427.6,1068.105v-1.834a1.456,1.456,0,0,0-.658-1.145l-.766-.442v-.634l1.226.709a1.455,1.455,0,0,1,.662,1.141v3.107c0,.419-.295.589-.662.377l-1.226-.708v-.634l.766.443C427.3,1068.695,427.6,1068.524,427.6,1068.105Z" transform="translate(-419.23 -1060.335)" fill="#1c110c"/>
        <path id="Trazado_604808" data-name="Trazado 604808" d="M426.239,1068.715l-.554-.32v-4.627l.554.32Z" transform="translate(-419.297 -1060.374)" fill="#1c110c"/>
      </g>
    </g>
    <path id="Trazado_604809" data-name="Trazado 604809" d="M438.252,1091.972s5.4,1.169,7.3-4.211,4.473-33.537,4.473-33.537-7.774,3.438-7.881,4.348S438.252,1091.972,438.252,1091.972Z" transform="translate(-402.351 -1011.628)" fill="#b53d06"/>
    <path id="Trazado_604810" data-name="Trazado 604810" d="M438.252,1050.818s6.923-5.075,7.3-4.211,4.619,7.124,4.473,8.678-7.881,4.348-7.881,4.348Z" transform="translate(-402.351 -1012.69)" fill="#eb4e07"/>
    <path id="Trazado_604811" data-name="Trazado 604811" d="M436.581,1038.369s6.46-4.777,7.3-4.21,2.854,12.425,1.96,14.154-6.112,5.911-7.3,4.211S435.241,1039.33,436.581,1038.369Z" transform="translate(-402.64 -1014.395)" fill="#f06728"/>
    <path id="Trazado_604812" data-name="Trazado 604812" d="M436.032,1034.775l7.3-4.211.565,4.083-7.3,4.211Z" transform="translate(-402.656 -1014.883)" fill="#ff6d2a"/>
    <path id="Trazado_604813" data-name="Trazado 604813" d="M429.093,1027.671s5.94-4.876,7.3-4.211,7.791,7.359,7.893,8.089-7.3,4.211-7.3,4.211Z" transform="translate(-403.611 -1015.869)" fill="#ff7a3d"/>
    <path id="Trazado_604814" data-name="Trazado 604814" d="M420.24,1022.134s8.194-4.1,7.3-4.211-6.964-1.558-7.894-1.024-8.2,3.528-7.3,4.211S420.24,1022.134,420.24,1022.134Z" transform="translate(-405.925 -1016.78)" fill="#ff7a3d"/>
    <path id="Trazado_604815" data-name="Trazado 604815" d="M437.651,1038.51s-.474,14.309,5.489,20.952c0,0,5.853-2.221,6.118-3.434s-4.686-2.654-5.822-19.281C443.288,1034.581,437.651,1038.51,437.651,1038.51Z" transform="translate(-402.435 -1014.122)" fill="#b53d06"/>
  </g>
</svg>
