<svg id="Grupo_176604" data-name="Grupo 176604" xmlns="http://www.w3.org/2000/svg" width="107.904" height="107.905" viewBox="0 0 107.904 107.905">
  <path id="Trazado_604367" data-name="Trazado 604367" d="M680.264,1072.967v-27.526L694.03,1021.6l23.835-13.764H745.4l23.839,13.764,13.768,23.839v27.53l-13.768,23.841L745.4,1110.574H717.865l-23.835-13.766Z" transform="translate(-677.685 -1005.253)" fill="#f4efe9"/>
  <path id="Trazado_604368" data-name="Trazado 604368" d="M678,1045.057v28.916l14.451,25.039,25.042,14.458h28.92l25.032-14.458,14.46-25.039v-28.916l-14.46-25.04-25.032-14.452H717.49l-25.042,14.452Zm5.166,1.386,13.072-22.642,22.638-13.07h26.149l22.638,13.07,13.072,22.638v26.149l-13.072,22.644-22.638,13.07H718.873l-22.638-13.07-13.072-22.644Z" transform="translate(-677.997 -1005.565)" fill="#fdb053"/>
  <g id="Grupo_176595" data-name="Grupo 176595" transform="translate(15.655 12.418)">
    <path id="Trazado_604369" data-name="Trazado 604369" d="M691.759,1068.912v6.733l8.253,4.768h11.665l34.844-20.119v-6.739l-8.249-4.758H726.6Z" transform="translate(-691.759 -1012.035)" opacity="0.3"/>
    <g id="Grupo_176588" data-name="Grupo 176588" transform="translate(0.652 44.298)">
      <path id="Trazado_604370" data-name="Trazado 604370" d="M692.332,1065.83v6.871l7.865,4.54,1.235-2.938-2.938-7.045Z" transform="translate(-692.332 -1053.989)" fill="#f7edd4"/>
      <path id="Trazado_604371" data-name="Trazado 604371" d="M706.848,1074.955l2.479,3.718,34.305-19.805v-3.447l-4.083.835Z" transform="translate(-690.334 -1055.421)" fill="#d9be93"/>
      <path id="Trazado_604372" data-name="Trazado 604372" d="M710.373,1072.981l-6.177-1.227-4.951,1.227v3.445h11.128Z" transform="translate(-691.38 -1053.174)" fill="#efcfa3"/>
    </g>
    <rect id="Rectángulo_44939" data-name="Rectángulo 44939" width="1.214" height="3.493" transform="translate(18.471 14.942)" fill="#0a0808"/>
    <rect id="Rectángulo_44940" data-name="Rectángulo 44940" width="1.214" height="3.497" transform="translate(18.471 20.964)" fill="#0a0808"/>
    <path id="Trazado_604373" data-name="Trazado 604373" d="M692.332,1065.588v6.427l7.865,4.54h11.128l34.305-19.807v-6.427l-7.865-4.542H726.639Z" transform="translate(-691.68 -1012.45)" fill="#544540"/>
    <path id="Trazado_604374" data-name="Trazado 604374" d="M709.162,1035.974v-10.09l15.2-8.912h9.264l6.544,3.781v6.913l-19.4,16.043-9.455.986-2.155-5.353Z" transform="translate(-689.364 -1016.414)" fill="#a39c95"/>
    <path id="Trazado_604375" data-name="Trazado 604375" d="M724.564,1017.4l.1,10.927,1.556,9.9-14.47,5.42-1.778-2.342-.811-3.078v-12.644l14.428-8.188Z" transform="translate(-689.364 -1016.355)" opacity="0.2"/>
    <path id="Trazado_604376" data-name="Trazado 604376" d="M692.332,1067.461l3.225-10.857,11.548-7.28,3.525-5.437.847-3.762,2.589,1.493,13.173-1.562,15.244-7.891,2.894,15.487.252,4.542-26.913,11.872Z" transform="translate(-691.68 -1014.323)" fill="#544540"/>
    <path id="Trazado_604377" data-name="Trazado 604377" d="M708.7,1029.434v5.423l.526,5.718.78,1.109,1.808.384-1.742-4.384-.312-2.963-.014-5.288-.522-.539Z" transform="translate(-689.428 -1014.773)" fill="#544540"/>
    <path id="Trazado_604378" data-name="Trazado 604378" d="M740.378,1025.25l-.524,7.928-1.044,2.864-12.055,7.247-10.4,1.7-4.917-2.355,2.866-3.475,1.067-4.873.984-.432,8.257-.168,15.244-8.876Z" transform="translate(-689.051 -1015.336)" fill="#544540"/>
    <path id="Trazado_604379" data-name="Trazado 604379" d="M725.131,1034.229l-1.277,8.913,2.284,11.071-3,5.043-11.709,7.54-2.9,5.7.564,6.9v3.445l34.305-19.805v-9.874l-.252-4.542-2.894-15.487.524-7.928-2.065.457-10.31,6Z" transform="translate(-689.451 -1015.282)" opacity="0.4"/>
    <g id="Grupo_176589" data-name="Grupo 176589" transform="translate(18.305 15.812)">
      <path id="Trazado_604380" data-name="Trazado 604380" d="M718.826,1043.9l-5.532-4.536-3.055-3.6-2.39-4.686.1-.5.413-.2.422.239,2.363,4.626,2.908,3.4,5.429,4.448Z" transform="translate(-707.849 -1030.381)" fill="#d8d1c7"/>
      <path id="Trazado_604381" data-name="Trazado 604381" d="M718.511,1043.8l-7.243-2.686-3.032-3.4v-.478l.329-.291.449.077,2.862,3.208,7,2.592Z" transform="translate(-707.796 -1029.477)" fill="#d8d1c7"/>
      <path id="Trazado_604382" data-name="Trazado 604382" d="M718.906,1037.5h-6.454l-3.793-.738-.371-.29-.015-.434.356-.329,3.915.746h6.362Z" transform="translate(-707.791 -1029.647)" fill="#d8d1c7"/>
    </g>
    <g id="Grupo_176591" data-name="Grupo 176591" transform="translate(31.09 28.907)">
      <g id="Grupo_176590" data-name="Grupo 176590" transform="translate(5.376 20.362)">
        <path id="Trazado_604383" data-name="Trazado 604383" d="M724.519,1060.069v2.717l-.222.126-.081-2.766Z" transform="translate(-723.758 -1059.752)" fill="#403531"/>
        <path id="Trazado_604384" data-name="Trazado 604384" d="M724.353,1060.2v2.715h-.318l-.222-2.843Z" transform="translate(-723.814 -1059.752)" fill="#544540"/>
        <path id="Trazado_604385" data-name="Trazado 604385" d="M724.035,1060.2v2.715l-.222-.126v-2.717Z" transform="translate(-723.814 -1059.752)" fill="#685750"/>
        <path id="Trazado_604386" data-name="Trazado 604386" d="M723.814,1059.924v.183l.222.128h.318l.222-.128v-.183l-.222-.134h-.318Z" transform="translate(-723.814 -1059.791)" fill="#836e69"/>
      </g>
      <path id="Trazado_604387" data-name="Trazado 604387" d="M724.311,1062.467l-.4-3.764-1.921-7.144-.711-5.854-2.195-3.229.868-.585,2.334,3.433.736,6.072,1.919,7.157.415,3.9-.319.394-.413,0Z" transform="translate(-719.088 -1041.892)" fill="#d8d1c7"/>
    </g>
    <g id="Grupo_176594" data-name="Grupo 176594" transform="translate(28.723 21.224)">
      <g id="Grupo_176592" data-name="Grupo 176592" transform="translate(0.478)">
        <path id="Trazado_604388" data-name="Trazado 604388" d="M718.453,1035.138l-1.025,1.023v.849l1.025.235H719.9l1.027-.235v-.849l-1.027-1.023Z" transform="translate(-717.428 -1035.138)" fill="#0a0808"/>
        <path id="Trazado_604389" data-name="Trazado 604389" d="M718.453,1035.882l-1.025,1.025v1.451l1.025,1.021H719.9l1.027-1.021v-1.451l-1.027-1.025Z" transform="translate(-717.428 -1035.035)" fill="#836e69"/>
      </g>
      <g id="Grupo_176593" data-name="Grupo 176593" transform="translate(0 5.787)">
        <path id="Trazado_604390" data-name="Trazado 604390" d="M718.031,1040.225l-1.023,1.023v.843l1.023.235h1.447l1.025-.235v-.843l-1.025-1.023Z" transform="translate(-717.008 -1040.225)" fill="#0a0808"/>
        <path id="Trazado_604391" data-name="Trazado 604391" d="M718.031,1040.971l-1.023,1.017v1.453l1.023,1.021h1.447l1.025-1.021v-1.453l-1.025-1.017Z" transform="translate(-717.008 -1040.122)" fill="#836e69"/>
      </g>
    </g>
    <path id="Trazado_604392" data-name="Trazado 604392" d="M725.108,1035.428h-9.361l.306-1.046h8.775l14.881-8.591v-4.722l-6.14-3.544h-8.939l-14.881,8.588v5.03H708.7v-5.63l15.645-9.031h9.5l6.909,3.988v5.926Z" transform="translate(-689.428 -1016.481)" fill="#362c29"/>
  </g>
  <g id="Grupo_176603" data-name="Grupo 176603" transform="translate(36.871 25.33)">
    <path id="Trazado_604393" data-name="Trazado 604393" d="M710.409,1080.262V1087l8.251,4.766h11.667l34.843-20.119v-6.737l-8.247-4.76H745.253Z" transform="translate(-710.409 -1023.385)" opacity="0.3"/>
    <g id="Grupo_176596" data-name="Grupo 176596" transform="translate(0.652 44.298)">
      <path id="Trazado_604394" data-name="Trazado 604394" d="M710.982,1077.182v6.869l7.863,4.542,1.235-2.94-2.938-7.045Z" transform="translate(-710.982 -1065.339)" fill="#f7edd4"/>
      <path id="Trazado_604395" data-name="Trazado 604395" d="M725.5,1086.307l2.48,3.718,34.307-19.809v-3.445l-4.083.836Z" transform="translate(-708.985 -1066.771)" fill="#d9be93"/>
      <path id="Trazado_604396" data-name="Trazado 604396" d="M729.021,1084.331l-6.175-1.227-4.953,1.227v3.447h11.128Z" transform="translate(-710.031 -1064.524)" fill="#efcfa3"/>
    </g>
    <rect id="Rectángulo_44941" data-name="Rectángulo 44941" width="1.214" height="3.491" transform="translate(18.469 14.944)" fill="#0a0808"/>
    <rect id="Rectángulo_44942" data-name="Rectángulo 44942" width="1.214" height="3.498" transform="translate(18.469 20.964)" fill="#0a0808"/>
    <path id="Trazado_604397" data-name="Trazado 604397" d="M710.982,1076.938v6.427l7.863,4.54h11.128L764.28,1068.1v-6.427l-7.865-4.54H745.289Z" transform="translate(-710.33 -1023.8)" fill="#544540"/>
    <path id="Trazado_604398" data-name="Trazado 604398" d="M727.81,1047.326v-10.092l15.2-8.91h9.264l6.546,3.781v6.913l-19.4,16.041-9.457.986-2.154-5.351Z" transform="translate(-708.014 -1027.763)" fill="#a39c95"/>
    <path id="Trazado_604399" data-name="Trazado 604399" d="M743.214,1028.75l.1,10.925,1.554,9.906L730.4,1055l-1.778-2.34-.811-3.078v-12.644l14.429-8.188Z" transform="translate(-708.014 -1027.705)" opacity="0.2"/>
    <path id="Trazado_604400" data-name="Trazado 604400" d="M710.982,1078.811l3.223-10.856,11.549-7.28,3.523-5.435.849-3.762,2.588,1.491,13.175-1.56,15.244-7.891L764.025,1059l.254,4.54-26.915,11.874Z" transform="translate(-710.33 -1025.673)" fill="#544540"/>
    <path id="Trazado_604401" data-name="Trazado 604401" d="M727.35,1040.784v5.424l.524,5.72.78,1.109,1.808.382-1.74-4.384-.313-2.963-.012-5.288-.524-.537Z" transform="translate(-708.078 -1026.123)" fill="#544540"/>
    <path id="Trazado_604402" data-name="Trazado 604402" d="M759.025,1036.6l-.52,7.928-1.044,2.864-12.055,7.243-10.4,1.7-4.917-2.353,2.867-3.474,1.065-4.875.984-.43,8.259-.17,15.244-8.876Z" transform="translate(-707.701 -1026.686)" fill="#544540"/>
    <path id="Trazado_604403" data-name="Trazado 604403" d="M743.779,1045.579l-1.277,8.912,2.286,11.071-3,5.045-11.711,7.538-2.9,5.7.562,6.9v3.447l34.307-19.809V1064.5l-.254-4.54-2.892-15.487.52-7.928-2.063.455-10.31,6Z" transform="translate(-708.101 -1026.632)" opacity="0.4"/>
    <g id="Grupo_176597" data-name="Grupo 176597" transform="translate(18.304 15.814)">
      <path id="Trazado_604404" data-name="Trazado 604404" d="M737.476,1055.254l-5.534-4.539-3.053-3.6-2.39-4.687.1-.5.413-.2.42.239,2.363,4.626,2.909,3.4,5.429,4.447Z" transform="translate(-726.499 -1041.732)" fill="#d8d1c7"/>
      <path id="Trazado_604405" data-name="Trazado 604405" d="M737.159,1055.155l-7.241-2.686-3.032-3.4v-.476l.329-.292.447.078,2.864,3.206,7,2.594Z" transform="translate(-726.446 -1040.829)" fill="#d8d1c7"/>
      <path id="Trazado_604406" data-name="Trazado 604406" d="M737.556,1048.852H731.1l-3.789-.736-.371-.292-.019-.434.359-.327,3.913.746h6.364Z" transform="translate(-726.441 -1040.999)" fill="#d8d1c7"/>
    </g>
    <g id="Grupo_176599" data-name="Grupo 176599" transform="translate(31.09 28.909)">
      <g id="Grupo_176598" data-name="Grupo 176598" transform="translate(5.376 20.362)">
        <path id="Trazado_604407" data-name="Trazado 604407" d="M743.169,1071.419v2.717l-.224.128-.078-2.768Z" transform="translate(-742.408 -1071.104)" fill="#403531"/>
        <path id="Trazado_604408" data-name="Trazado 604408" d="M743,1071.547v2.717h-.316l-.222-2.845Z" transform="translate(-742.464 -1071.104)" fill="#544540"/>
        <path id="Trazado_604409" data-name="Trazado 604409" d="M742.685,1071.547v2.717l-.222-.128v-2.717Z" transform="translate(-742.464 -1071.104)" fill="#685750"/>
        <path id="Trazado_604410" data-name="Trazado 604410" d="M742.464,1071.276v.182l.222.128H743l.224-.128v-.182l-.224-.134h-.316Z" transform="translate(-742.464 -1071.142)" fill="#836e69"/>
      </g>
      <path id="Trazado_604411" data-name="Trazado 604411" d="M742.961,1073.819l-.4-3.766-1.919-7.142-.715-5.856-2.191-3.229.866-.583,2.334,3.431.736,6.074,1.919,7.156.415,3.906-.319.392-.411.006Z" transform="translate(-737.738 -1053.243)" fill="#d8d1c7"/>
    </g>
    <g id="Grupo_176602" data-name="Grupo 176602" transform="translate(28.721 21.224)">
      <g id="Grupo_176600" data-name="Grupo 176600" transform="translate(0.48)">
        <path id="Trazado_604412" data-name="Trazado 604412" d="M737.1,1046.488l-1.025,1.025v.847l1.025.237h1.443l1.025-.237v-.847l-1.025-1.025Z" transform="translate(-736.078 -1046.488)" fill="#0a0808"/>
        <path id="Trazado_604413" data-name="Trazado 604413" d="M737.1,1047.234l-1.025,1.023v1.451l1.025,1.023h1.443l1.025-1.023v-1.451l-1.025-1.023Z" transform="translate(-736.078 -1046.385)" fill="#836e69"/>
      </g>
      <g id="Grupo_176601" data-name="Grupo 176601" transform="translate(0 5.787)">
        <path id="Trazado_604414" data-name="Trazado 604414" d="M736.679,1051.575l-1.023,1.025v.843l1.023.235h1.449l1.025-.235v-.843l-1.025-1.025Z" transform="translate(-735.656 -1051.575)" fill="#0a0808"/>
        <path id="Trazado_604415" data-name="Trazado 604415" d="M736.679,1052.321l-1.023,1.019v1.449l1.023,1.025h1.449l1.025-1.025v-1.449l-1.025-1.019Z" transform="translate(-735.656 -1051.472)" fill="#836e69"/>
      </g>
    </g>
    <path id="Trazado_604416" data-name="Trazado 604416" d="M743.756,1046.778h-9.362l.308-1.046h8.775l14.879-8.591v-4.72l-6.138-3.544h-8.939l-14.881,8.587v5.028H727.35v-5.628l15.645-9.033h9.5l6.907,3.988v5.928Z" transform="translate(-708.078 -1027.831)" fill="#362c29"/>
  </g>
</svg>
