<svg id="Grupo_176727" data-name="Grupo 176727" xmlns="http://www.w3.org/2000/svg" width="189.694" height="633.178" viewBox="0 0 189.694 633.178">
  <path id="Trazado_604647" data-name="Trazado 604647" d="M663.423,1074.212l-48.773-28.144H545.669l-48.763,28.144-.007,39.832,48.77,28.157h68.985l48.769-28.157Z" transform="translate(-490.072 -509.024)" opacity="0.3"/>
  <path id="Trazado_604648" data-name="Trazado 604648" d="M510.163,807.715,496.424,825.82l-5.526,20.6,8.207,17.467,9.509,1.348,13.037-7.469-1.194-12.984,8.5-23.734.747-6.527-9.252-6.807Z" transform="translate(-490.898 -541.819)" fill="#0a0808"/>
  <path id="Trazado_604649" data-name="Trazado 604649" d="M549.064,648.524,532.09,661.266l-4.525,27.869-3.582,65.287-1.538,5.845,1.132,7.073-4.055,4.012L506.471,820.9l1.985,11.159,9.159,4.37h9.95l7.966-6.37L560.6,703.862l-3.179-46.578Z" transform="translate(-488.755 -563.722)" fill="#ff9f3d"/>
  <path id="Trazado_604650" data-name="Trazado 604650" d="M520.867,746.752l18.38,10.2,20.438-2.16-4.458,11.677L536.49,768.3l-18.545-10.462Z" transform="translate(-487.177 -550.207)" fill="#f4efe9"/>
  <path id="Trazado_604651" data-name="Trazado 604651" d="M601.092,643.146l2.183,12.888.8,12.241L584.747,683.8l-23.656,4.482-4.184-20.007,27.84-20.148Z" transform="translate(-481.816 -564.462)" fill="#c7a495"/>
  <path id="Trazado_604652" data-name="Trazado 604652" d="M510.322,1062.332v3.858l1.194,14.529,30.456-.8,21.544-8.954,32.793-1.994,3.191-16.728V1048.4Z" transform="translate(-488.225 -508.703)" fill="#f7edd4"/>
  <path id="Trazado_604653" data-name="Trazado 604653" d="M556.5,1037.37l-13.133,11.143-28.274,7.362-4.775,9.161,1.194,14.529,30.456-.8,21.544-8.954,32.793-1.992,3.191-16.72-6.626-20.725-32.546-1.631Z" transform="translate(-488.225 -511.407)" fill="#544540"/>
  <path id="Trazado_604654" data-name="Trazado 604654" d="M527.112,809.857l2.092,72.451,9.558,69.664,8.361,26.871,2.34,7.563-2.107,5.273,1.254,68.972L572.5,1070.2l28.663-10.742L571.307,821.2Z" transform="translate(-485.915 -541.524)" fill="#ff9f3d"/>
  <path id="Trazado_604655" data-name="Trazado 604655" d="M544.7,958.928l24.478,4.775,21.465-9.1-.136,14.322-20.133,8.312-25.442-5.475Z" transform="translate(-483.495 -521.608)" fill="#f4efe9"/>
  <path id="Trazado_604656" data-name="Trazado 604656" d="M535.779,835.816l-.905,25.322-4.61-.31.916-25.611Z" transform="translate(-485.482 -538.035)" fill="#0a0808"/>
  <path id="Trazado_604657" data-name="Trazado 604657" d="M528.652,851.687l33.495,7.867,29.334-8.5,2.233,2.535-3.732,40.159-26.78,6.58-33.756-7.851L526.9,877.261l-.97-20.983Z" transform="translate(-486.077 -535.856)" fill="#362c29"/>
  <path id="Trazado_604658" data-name="Trazado 604658" d="M605.451,1117.907l-24.537,4.93v3.848l11.407,6.419,18.06-2.434,10.744-18.314,3.982-21.489v-3.862Z" transform="translate(-478.513 -503.391)" fill="#f7edd4"/>
  <path id="Trazado_604659" data-name="Trazado 604659" d="M594.757,1069.9l-2.439,17.712-10.853,22.76-.55,15.162,11.407,6.423,18.06-2.445,10.744-18.308,3.982-21.5-2.489-22.292Z" transform="translate(-478.513 -506.087)" fill="#544540"/>
  <path id="Trazado_604660" data-name="Trazado 604660" d="M529.25,793.753l-2.138,18.32,17.917,42.589,25.88,19.5L582.725,983.64l8.081,28.677,2.894,9.249-2.372,3.688,3.066,76.623,9.956,10.348,9.555,2.4,15.123-4.986L635.8,1097.7l.759-76.634-2.476-5.519,2.611-8.809-4.483-29.257L640.971,868.5l-.854-38.922-11.883-28.666Z" transform="translate(-485.915 -543.74)" fill="#fdb053"/>
  <path id="Trazado_604661" data-name="Trazado 604661" d="M583.1,986.557l24.487,4.772,21.4-10.354-.136,14.328-20.067,9.56-25.162-5.37Z" transform="translate(-478.212 -517.98)" fill="#f4efe9"/>
  <rect id="Rectángulo_44944" data-name="Rectángulo 44944" width="6.988" height="66.269" transform="translate(95.814 274.55) rotate(-2.964)" fill="#0a0808"/>
  <path id="Trazado_604662" data-name="Trazado 604662" d="M565.817,864.559l39.651,10.132L635.5,863.57l1.571,2.783-3.9,38.664-27.439,11.973-36.084-8.983-5.52-39.455Z" transform="translate(-480.823 -534.134)" fill="#574943"/>
  <path id="Trazado_604663" data-name="Trazado 604663" d="M531.069,839.777l1.35-37.7,4.606.306-1.356,38-2.224,2.986Z" transform="translate(-485.371 -542.595)" fill="#0a0808"/>
  <path id="Trazado_604664" data-name="Trazado 604664" d="M529.1,777.92l-.887,25.644L551.745,824h58.621l20.547-14.072-2.831-23.212Z" transform="translate(-485.764 -545.918)" fill="#574943"/>
  <path id="Trazado_604665" data-name="Trazado 604665" d="M613.688,939.41l-16.3-16.3-6.651-29.148-4.5-40.088-1.193-17.9,1.78-17.92,2.374.235-1.772,17.719,1.191,17.649L593.1,893.57l6.464,28.337,14.754,14.747,10.442-3.739,6.6-15.81,5.856-37.022-4.223-35.957,2.38-.281,4.25,36.288L633.611,917.9l-7.067,16.911Z" transform="translate(-477.944 -540.396)" fill="#8a1c14"/>
  <path id="Trazado_604666" data-name="Trazado 604666" d="M622.519,925.9l-16.326-16.471L596.078,883.31,591.146,853.8l-2.7-35.183,2.388-.189,2.69,35.085,4.892,29.285,9.91,25.521,14.814,14.81,10.444-3.741,6.567-15.7L639.82,867.5l-4.225-36,2.382-.271,4.225,36.123.336,36.8-7.163,17.129Z" transform="translate(-477.477 -540.344)" fill="#0a0808"/>
  <rect id="Rectángulo_44945" data-name="Rectángulo 44945" width="7.616" height="28.867" transform="translate(107.233 250.709)" fill="#0a0808"/>
  <path id="Trazado_604667" data-name="Trazado 604667" d="M561.384,666.942l.6,16.273h-2.39l-3.733-10.595Z" transform="translate(-481.96 -561.188)" fill="#ff9f3d"/>
  <path id="Trazado_604668" data-name="Trazado 604668" d="M605.822,660.7l-2.342-8.061-13.135,14.179-20.748,7.77-8.359,10.595,33.135-1.941L607.065,671.3Z" transform="translate(-481.22 -563.156)" fill="#ff9f3d"/>
  <g id="Grupo_176707" data-name="Grupo 176707" transform="translate(36.406 230.519)">
    <g id="Grupo_176706" data-name="Grupo 176706" transform="translate(0 20.479)">
      <g id="Grupo_176703" data-name="Grupo 176703" transform="translate(0.449)">
        <path id="Trazado_604669" data-name="Trazado 604669" d="M528.934,799.415l7.119,4.089,2.978,5.158v18.807l-.769,2.38-6.874-3.955-2.455-4.248v-3.38l-3.376-1.946-2.262,1.307,3.783,9.832,8.266,4.644,4.788.231,2.265-1.3V806.9l-4.422-7.67-7.985-4.611-2.263,1.312Z" transform="translate(-523.296 -794.619)" fill="#a39c95"/>
        <path id="Trazado_604670" data-name="Trazado 604670" d="M529.125,800.466l5.19,3,2.451,4.25v20.9l-2.451,1.417-5.19-2.994-2.455-4.248v-3.38l-3.374-1.942v4.988l4.432,7.668,7.984,4.613,4.421-2.562V808.046l-4.421-7.675-7.984-4.6Z" transform="translate(-523.296 -794.46)" fill="#d8d1c7"/>
      </g>
      <g id="Grupo_176704" data-name="Grupo 176704" transform="translate(0 6.878)">
        <path id="Trazado_604671" data-name="Trazado 604671" d="M528.991,803.019v14.919l-1.928,1.1-.674-15.315Z" transform="translate(-522.421 -800.341)" fill="#403531"/>
        <path id="Trazado_604672" data-name="Trazado 604672" d="M527.544,804.138v14.9H524.83L522.9,803.019Z" transform="translate(-522.901 -800.341)" fill="#544540"/>
        <path id="Trazado_604673" data-name="Trazado 604673" d="M524.83,804.138v14.9l-1.929-1.1V803.019Z" transform="translate(-522.901 -800.341)" fill="#685750"/>
        <path id="Trazado_604674" data-name="Trazado 604674" d="M522.9,801.772v1.572l1.929,1.118h2.725l1.917-1.118v-1.572l-1.917-1.107H524.83Z" transform="translate(-522.901 -800.665)" fill="#836e69"/>
      </g>
      <g id="Grupo_176705" data-name="Grupo 176705" transform="translate(0.449 1.312)">
        <path id="Trazado_604675" data-name="Trazado 604675" d="M525.615,800.988l.736,3.3,2.264-1.3V799.48Z" transform="translate(-522.977 -795.261)" fill="#a39c95"/>
        <path id="Trazado_604676" data-name="Trazado 604676" d="M527.728,795.771l-4.432,2.552v4.533l3.374,1.946v-2.927l2.455-1.409.236-1.925Z" transform="translate(-523.296 -795.771)" fill="#d8d1c7"/>
      </g>
    </g>
    <path id="Trazado_604677" data-name="Trazado 604677" d="M534.394,807.671l-6.589-3.8,3.769-27.252,6.592,3.807Z" transform="translate(-522.226 -776.616)" fill="#0a0808"/>
  </g>
  <g id="Grupo_176712" data-name="Grupo 176712" transform="translate(45.447 239.678)">
    <g id="Grupo_176711" data-name="Grupo 176711" transform="translate(0 20.479)">
      <g id="Grupo_176708" data-name="Grupo 176708" transform="translate(0.451)">
        <path id="Trazado_604678" data-name="Trazado 604678" d="M536.875,807.458,544,811.552l2.97,5.162v18.8l-.758,2.38-6.877-3.955-2.463-4.25v-3.374l-3.368-1.942-2.262,1.306,3.785,9.826,8.263,4.655,4.791.228,2.259-1.313V814.943l-4.417-7.662-7.987-4.611-2.266,1.3Z" transform="translate(-531.245 -802.67)" fill="#a39c95"/>
        <path id="Trazado_604679" data-name="Trazado 604679" d="M537.073,808.509l5.19,3,2.451,4.25v20.9l-2.451,1.426-5.19-3-2.46-4.254v-3.372l-3.369-1.942v4.986l4.427,7.662,7.989,4.615,4.423-2.554V816.089l-4.423-7.66-7.989-4.615Z" transform="translate(-531.245 -802.512)" fill="#d8d1c7"/>
      </g>
      <g id="Grupo_176709" data-name="Grupo 176709" transform="translate(0 6.867)">
        <path id="Trazado_604680" data-name="Trazado 604680" d="M536.938,811.07v14.907l-1.926,1.118-.675-15.328Z" transform="translate(-530.368 -808.381)" fill="#403531"/>
        <path id="Trazado_604681" data-name="Trazado 604681" d="M535.492,812.179V827.1l-2.716-.006-1.929-16.02Z" transform="translate(-530.848 -808.381)" fill="#544540"/>
        <path id="Trazado_604682" data-name="Trazado 604682" d="M532.777,812.179v14.911l-1.929-1.113V811.07Z" transform="translate(-530.848 -808.381)" fill="#685750"/>
        <path id="Trazado_604683" data-name="Trazado 604683" d="M530.848,809.823V811.4l1.929,1.109h2.716l1.926-1.109v-1.573l-1.926-1.116-2.716.008Z" transform="translate(-530.848 -808.706)" fill="#836e69"/>
      </g>
      <g id="Grupo_176710" data-name="Grupo 176710" transform="translate(0.451 1.302)">
        <path id="Trazado_604684" data-name="Trazado 604684" d="M533.564,809.033l.731,3.307,2.261-1.308v-3.512Z" transform="translate(-530.925 -803.304)" fill="#a39c95"/>
        <path id="Trazado_604685" data-name="Trazado 604685" d="M535.672,803.814l-4.427,2.546V810.9l3.369,1.954v-2.917l2.46-1.424.236-1.923Z" transform="translate(-531.245 -803.814)" fill="#d8d1c7"/>
      </g>
    </g>
    <path id="Trazado_604686" data-name="Trazado 604686" d="M542.344,815.714l-6.6-3.8,3.772-27.25,6.6,3.8Z" transform="translate(-530.174 -784.668)" fill="#0a0808"/>
  </g>
  <path id="Trazado_604687" data-name="Trazado 604687" d="M610.806,660.447l-12.443,17.321-32.141,7.162-7.691-30.455-23.958,18.518-9.559,41.792v76.242l28.068,24.08h57.724l19.926-12.833,14.913-110.3-16.731-17.2Z" transform="translate(-486.204 -562.903)" fill="#fdb053"/>
  <rect id="Rectángulo_44946" data-name="Rectángulo 44946" width="2.391" height="12.551" transform="translate(134.529 269.51) rotate(-12.023)" fill="#377691"/>
  <path id="Trazado_604688" data-name="Trazado 604688" d="M614.359,813.916l-6.519,4.632L605.7,794.023l4.162-4.743,2.43.931Z" transform="translate(-475.102 -544.355)" fill="#0a0808"/>
  <g id="Grupo_176713" data-name="Grupo 176713" transform="translate(132.413 274.605)">
    <path id="Trazado_604689" data-name="Trazado 604689" d="M627.368,833.739l-2.913-.8-5,4.966-3.686-13.965.626-.62.947-3.507-.131-3.646-2.919-.8-5.564,5.518-.951,3.512,1.031,3.894,2.86.778,3.47,13.114-5,4.96L607.3,857.629l2.891,10.927,2.917.8L619.9,867.3l10.644-11.3,3.414-8.327L631.2,837.21Zm2.127,13.229-1.578,5.807L615.412,865.19l-2.343-1.916-1.4-5.259,2.589-9.126,12.45-12.465Z" transform="translate(-607.296 -815.371)" fill="#c84030"/>
    <path id="Trazado_604690" data-name="Trazado 604690" d="M627.015,833.642l-4.986,4.953-3.69-13.959.622-.613.956-3.512-1.033-3.893-2.023-.548L611.3,821.6l-.949,3.508,1.027,3.886,2.021.548.617-.61,3.695,13.951-4.993,4.958-2.859,10.49,2.894,10.927L618.8,870.9,633.109,856.7l2.85-10.491-2.883-10.931Zm5.044,14.022-1.569,5.806-11.5,11.418-3.353-.911-1.874-7.1,1.579-5.805,11.5-11.42,3.352.908Z" transform="translate(-606.944 -815.275)" fill="#8a1c14"/>
  </g>
  <path id="Trazado_604691" data-name="Trazado 604691" d="M613.7,819.389l-1.69,1.7v2.4l1.69,1.7h2.4l1.7-1.7v-2.4l-1.7-1.7Z" transform="translate(-474.235 -540.213)" fill="#377691"/>
  <path id="Trazado_604692" data-name="Trazado 604692" d="M612.3,795.541l-6.591,3.812,20.476-48.814v10.948Z" transform="translate(-475.102 -549.686)" fill="#0a0808"/>
  <path id="Trazado_604693" data-name="Trazado 604693" d="M600.234,717.783,553,716.856,529.8,696.38l3.8-6.206,22.17,19.568,44.6.878Z" transform="translate(-485.546 -557.991)" fill="#0a0808"/>
  <path id="Trazado_604694" data-name="Trazado 604694" d="M563.983,661.535l-23.141,22.622-11.05,24.552-4.778,6.119,8.667-43.734,21-16.934Z" transform="translate(-486.204 -562.946)" fill="#362c29"/>
  <g id="Grupo_176714" data-name="Grupo 176714" transform="translate(110.049 105.555)">
    <path id="Trazado_604695" data-name="Trazado 604695" d="M623.537,758.25l-15.462-2.176-10.4-16.593,6.274-3.042,8.7,13.9,12.013,1.683Z" transform="translate(-586.255 -657.181)" fill="#0a0808"/>
    <path id="Trazado_604696" data-name="Trazado 604696" d="M612.316,666.767l-15.544,16.487-9.136,34.12,8.664,32.75,14.275-1.439-7.509-28.295,7.687-28.732,15.668-12.278-4.732-9.006Z" transform="translate(-587.636 -666.767)" fill="#362c29"/>
  </g>
  <path id="Trazado_604697" data-name="Trazado 604697" d="M539.5,639.1l7.415,37.475,7.362,5.178,16.463-2.79,19.963-16.024,3.573-10.448,9.759-6.96,1.633-14.688-3.244-5.363Z" transform="translate(-484.211 -566.892)" fill="#f0c6b4"/>
  <path id="Trazado_604698" data-name="Trazado 604698" d="M583.51,631.95l-.407,16.117,4.087-1.99,1.791-10.845,5.565-5.9,4.286,2.616-.4,10.879,3.29-11.381,1.092-12.142Z" transform="translate(-478.212 -567.742)" fill="#b57355"/>
  <g id="Grupo_176723" data-name="Grupo 176723" transform="translate(44.211 37.795)">
    <g id="Grupo_176716" data-name="Grupo 176716" transform="translate(10.494)">
      <path id="Trazado_604699" data-name="Trazado 604699" d="M608.014,626.18l-2.678-5.787-9.426-5.444-12.877-1.993-12.878,1.993-31.167,18.076v-5.757l31.167-18.076,12.878-1.99,12.877,1.99,9.426,5.446,3.445,7.432Z" transform="translate(-538.986 -607.203)" fill="#574943"/>
      <g id="Grupo_176715" data-name="Grupo 176715" transform="translate(35.174 14.867)">
        <path id="Trazado_604700" data-name="Trazado 604700" d="M590.8,633.689l2.984-3.161-23.874,13.841v5.757l20.1-11.655Z" transform="translate(-569.906 -618.86)" fill="#0a0808"/>
        <path id="Trazado_604701" data-name="Trazado 604701" d="M597.756,627.7l-3.678,2.135,3.244,1.979-.071,1.936.5-.292,3.445-7.434v-5.756Z" transform="translate(-566.581 -620.272)" fill="#0a0808"/>
      </g>
    </g>
    <path id="Trazado_604702" data-name="Trazado 604702" d="M530.712,629.17l2.339-1.708,28.715,16.582,2.383,5v7.424l-3.614,2.649-6.974-4.021-4.542-7.568-.443-1.831-2.2-1.326-.706,1.48-4.237,2.238-6.838-3.944-3.882-7.235Z" transform="translate(-529.631 -604.415)" fill="#685750"/>
    <g id="Grupo_176717" data-name="Grupo 176717" transform="translate(2.538 24.014)">
      <path id="Trazado_604703" data-name="Trazado 604703" d="M553.477,651.808l-3.986-6.9-.933-2.645-3.343-1.93-.648.378,1.667,1.748,2.144,2.587,4,7.144,6.389,3.715.564-.717Z" transform="translate(-530.263 -626.658)" fill="#403531"/>
      <path id="Trazado_604704" data-name="Trazado 604704" d="M532.875,636.233v-6.6l1.448-1.215-.134-.106H533.8l-1.8,1.621v7.034l3.083,5.889,6.389,3.714.786-.59-6.073-3.506Z" transform="translate(-531.993 -628.312)" fill="#403531"/>
    </g>
    <g id="Grupo_176718" data-name="Grupo 176718" transform="translate(1.889 24.394)">
      <path id="Trazado_604705" data-name="Trazado 604705" d="M551.963,650.776l5.848,3.38-.559.717-6.392-3.717.657-.581Z" transform="translate(-528.748 -625.629)" fill="#f4efe9"/>
      <path id="Trazado_604706" data-name="Trazado 604706" d="M535.231,641.121l5.857,3.375-.567.722-6.386-3.717.655-.582Z" transform="translate(-531.05 -626.958)" fill="#f4efe9"/>
      <path id="Trazado_604707" data-name="Trazado 604707" d="M532.306,636.566v-6.6l1.444-1.221-.137-.1h-.392l-1.8,1.623V637.3l.719-.38Z" transform="translate(-531.423 -628.646)" fill="#b5afa7"/>
      <path id="Trazado_604708" data-name="Trazado 604708" d="M532.278,635.608l3.3,6.244-.648.379-1.841-2.278-1.462-3.965Z" transform="translate(-531.395 -627.688)" fill="#e6e1dd"/>
      <path id="Trazado_604709" data-name="Trazado 604709" d="M548.456,644.722l3.991,6.9-.651.38-.986-.654-3.464-6.49.943-.439Z" transform="translate(-529.232 -626.476)" fill="#e6e1dd"/>
      <path id="Trazado_604710" data-name="Trazado 604710" d="M547.643,642.361l.931,2.645-.648.381-1.44-2.772.75-.2Z" transform="translate(-529.35 -626.759)" fill="#b5afa7"/>
      <path id="Trazado_604711" data-name="Trazado 604711" d="M543.994,641.048l.652-.386,3.34,1.933-.648.379-1.671-.182Z" transform="translate(-529.693 -626.993)" fill="#e6e1dd"/>
    </g>
    <path id="Trazado_604712" data-name="Trazado 604712" d="M557.24,657.818l8.213-4.737,6.7-4.573h-.331L561.5,654.165l-3.825,2.868Z" transform="translate(-525.981 -601.519)" fill="#a39c95"/>
    <path id="Trazado_604713" data-name="Trazado 604713" d="M571.714,641.13v8.392l-10.445,6.032-.849-8.818Z" transform="translate(-525.544 -602.534)" fill="#a39c95"/>
    <g id="Grupo_176719" data-name="Grupo 176719" transform="translate(43.175 40.587)">
      <path id="Trazado_604714" data-name="Trazado 604714" d="M568.81,644.17l-.109,6.292-.986-.567v-6.232Z" transform="translate(-567.715 -642.773)" fill="#362c29"/>
      <path id="Trazado_604715" data-name="Trazado 604715" d="M569.255,642.881l.988.571-.771.853-.77.034-.986-.567Z" transform="translate(-567.715 -642.881)" fill="#574943"/>
      <path id="Trazado_604716" data-name="Trazado 604716" d="M570.124,649.615v-6.233l-1.542.886V650.5Z" transform="translate(-567.596 -642.812)" fill="#0a0808"/>
    </g>
    <path id="Trazado_604717" data-name="Trazado 604717" d="M566.916,637.26l5.086,4.4-10.445,6.029-1.382-2.14-1.851-3.606.779-.523Z" transform="translate(-525.832 -603.067)" fill="#b5afa7"/>
    <path id="Trazado_604718" data-name="Trazado 604718" d="M538.3,625.821l2.643-3.143v1.486l-1.607,3.851Z" transform="translate(-528.587 -605.073)" fill="#a39c95"/>
    <path id="Trazado_604719" data-name="Trazado 604719" d="M532.27,626.763l8.211-4.741,1.291.747-1.607,3.847,22.381,12.921,6.663-.926,1.291.745-8.21,4.738-4.845-1.834-21.959-12.7Z" transform="translate(-529.417 -605.164)" fill="#e6e1dd"/>
    <g id="Grupo_176722" data-name="Grupo 176722" transform="translate(4.818 19.193)">
      <g id="Grupo_176720" data-name="Grupo 176720" transform="translate(21.816 12.593)">
        <path id="Trazado_604720" data-name="Trazado 604720" d="M558.676,639.645l-5.5-3.056v1.136l5.4,3.118Z" transform="translate(-553.175 -634.946)" fill="#362c29"/>
        <path id="Trazado_604721" data-name="Trazado 604721" d="M560.764,639.025v-1.144l-1.794.8-1.051.845v1.137Z" transform="translate(-552.522 -634.768)" fill="#0a0808"/>
        <path id="Trazado_604722" data-name="Trazado 604722" d="M553.175,636.788l5.4,3.118,2.845-1.649-5.4-3.112Z" transform="translate(-553.175 -635.145)" fill="#574943"/>
      </g>
      <g id="Grupo_176721" data-name="Grupo 176721">
        <path id="Trazado_604723" data-name="Trazado 604723" d="M539.5,628.574,534,625.519v1.136l5.4,3.117Z" transform="translate(-533.997 -623.876)" fill="#362c29"/>
        <path id="Trazado_604724" data-name="Trazado 604724" d="M541.591,627.955v-1.14l-1.794.8-1.052.842v1.137Z" transform="translate(-533.344 -623.698)" fill="#0a0808"/>
        <path id="Trazado_604725" data-name="Trazado 604725" d="M534,625.718l5.4,3.116,2.846-1.642-5.4-3.117Z" transform="translate(-533.997 -624.075)" fill="#574943"/>
      </g>
    </g>
    <path id="Trazado_604726" data-name="Trazado 604726" d="M544.728,644.7l1.177-.681-.431-.693-.972.484Z" transform="translate(-527.734 -602.232)" fill="#a39c95"/>
    <path id="Trazado_604727" data-name="Trazado 604727" d="M562.636,643.521l-30.021-17.332-2.853,2.4v8.389l4.466,8.437,7.686,4.438,4.843-2.8.494-.834.747.435.5,1.4,4.839,8.386,7.687,4.437,4.466-3.277v-8.4Zm.734,11.942-3.3,2.429-5.851-3.381-3.987-6.9-.932-2.646-3.343-1.926-.928,1.568-3.987,2.3-5.853-3.378-3.3-6.242v-6.6l1.738-1.469,28.01,16.172,1.742,3.479Z" transform="translate(-529.762 -604.59)" fill="#d8d1c7"/>
  </g>
  <g id="Grupo_176726" data-name="Grupo 176726" transform="translate(41.382)">
    <path id="Trazado_604728" data-name="Trazado 604728" d="M556.3,620.275l-20.637,3.519v3.936L556.3,639.664h28.591l29.149-16.83v-3.949l-29.149,1.391Z" transform="translate(-526.121 -567.8)" fill="#e09d38"/>
    <path id="Trazado_604729" data-name="Trazado 604729" d="M556.3,597.907l-20.637,11.915v17.533L556.3,639.269h28.591l29.149-16.824V604.912L593.394,593Z" transform="translate(-526.121 -571.361)" fill="#ffec7a"/>
    <g id="Grupo_176724" data-name="Grupo 176724" transform="translate(0 39.797)">
      <path id="Trazado_604730" data-name="Trazado 604730" d="M557.451,640.712l-20.637-11.934V611.266l-6.705,7.433-.617-.225v.586l-2.081,14.361-.138.276v.6l20.639,11.916L573.55,644.5l12.493-3.792v-2.618l-7.566,1.663Z" transform="translate(-527.274 -608.645)" fill="#e09d38"/>
      <path id="Trazado_604731" data-name="Trazado 604731" d="M536.815,626.5V608.962l-7.322,9.829-2.218,15.223,20.639,11.923,25.636-1.713,12.493-5.814H557.451Z" transform="translate(-527.274 -608.962)" fill="#ffc654"/>
    </g>
    <path id="Trazado_604732" data-name="Trazado 604732" d="M556.475,598.976l-19.755,11.4v16.137l19.75,11.406h27.948L612.667,621.6V605.465l-19.748-11.4Z" transform="translate(-525.975 -571.215)" fill="#ffc654"/>
    <path id="Trazado_604733" data-name="Trazado 604733" d="M598.528,581.766l-11.26-6.061L572.8,573.979l-6.4,41.8,42.221-7.547-2.391-14.749Z" transform="translate(-521.891 -573.979)" fill="#ffc654"/>
    <path id="Trazado_604734" data-name="Trazado 604734" d="M562.207,578.06l-15.34,8.619-7.706,11.716-2.44,14.741,40.457,2.64-.294-41.8Z" transform="translate(-525.975 -573.979)" fill="#ffc654"/>
    <path id="Trazado_604735" data-name="Trazado 604735" d="M566.584,600.775l11.092-9.406,16.7-6.216-16.7,5-12.294,9.115-8.495,17.946-2.805,20.634,27.786-.206L556.621,636.4l1.78-18.472Z" transform="translate(-523.586 -572.441)" fill="#f2b63d"/>
    <g id="Grupo_176725" data-name="Grupo 176725" transform="translate(10.816 1.327)">
      <path id="Trazado_604736" data-name="Trazado 604736" d="M536.783,623.4l1.01-6.169-.45-9.751Z" transform="translate(-536.783 -570.695)" fill="#f2b63d"/>
      <path id="Trazado_604737" data-name="Trazado 604737" d="M548.059,589.269l-8.495,17.946-2.781,20.639,4.291-19.927,8.2-17.154,11.081-9.4,16.689-6.226-16.689,5.017Z" transform="translate(-536.783 -575.145)" fill="#f2b63d"/>
    </g>
    <path id="Trazado_604738" data-name="Trazado 604738" d="M587.046,612.249l-7.933,13.781v9.978l27.159-15.681v-9.983l-7.966-4.586Z" transform="translate(-520.142 -569.606)" fill="#d66b24" opacity="0.2"/>
  </g>
  <path id="Trazado_604739" data-name="Trazado 604739" d="M633.11,860.634l-11.95,13.789L613.2,894.03l4.08,3.476,8.861-10.05,2.781,6.475-1.26,10.411-6.8,9.784L624.155,922l15.724-8.57,12.661-16.664,1.267-36.129Z" transform="translate(-474.07 -534.538)" fill="#0a0808"/>
  <path id="Trazado_604740" data-name="Trazado 604740" d="M623.875,685.97l-13.535,22.293-2.384,26.674,15.919,68.075.595,10.054,2.588,9.348-1.914,1.979,3.107,52.66,5.58,10.354,9.545,5.582,13.147-6.775,4.775-9.161,2.177-56.315-2.416-4.364,2.9-8.136.524-13.586-15.527-91.167-12.738-15.518Z" transform="translate(-474.792 -558.57)" fill="#ff9f3d"/>
  <path id="Trazado_604741" data-name="Trazado 604741" d="M622.473,798.27l20.816,3.77,18.675-8.591-.486,12.491-17.159,7.735-21.172-4.07Z" transform="translate(-472.795 -543.782)" fill="#f4efe9"/>
</svg>
